<svg width="733" height="450" viewBox="0 0 733 450" fill="none" xmlns="http://www.w3.org/2000/svg">
<mask id="mask0_4636_148186" style="mask-type:alpha" maskUnits="userSpaceOnUse" x="0" y="0" width="733" height="450">
<path d="M0 450L-1.96701e-05 3.05176e-05L733 -1.52287e-06L733 450L0 450Z" fill="#001E2B"/>
</mask>
<g mask="url(#mask0_4636_148186)">
<path d="M590.544 -459.266C591.217 -459.251 591.891 -459.241 592.566 -459.236L592.563 -458.736C592.697 -458.735 592.832 -458.734 592.966 -458.734C593.171 -458.733 593.376 -458.732 593.581 -458.732C593.794 -458.732 594.007 -458.732 594.22 -458.731C594.343 -458.73 594.466 -458.729 594.589 -458.729L594.593 -459.229C595.267 -459.224 595.941 -459.214 596.613 -459.199L596.602 -458.699C597.272 -458.685 597.94 -458.665 598.607 -458.641L598.625 -459.14C599.296 -459.116 599.965 -459.087 600.632 -459.053L600.607 -458.553C601.279 -458.519 601.949 -458.48 602.618 -458.436L602.651 -458.935C603.323 -458.89 603.993 -458.841 604.662 -458.787L604.621 -458.289C605.288 -458.235 605.953 -458.177 606.616 -458.113L606.664 -458.611C607.334 -458.547 608.003 -458.478 608.671 -458.405L608.616 -457.908C609.283 -457.834 609.949 -457.755 610.613 -457.672L610.675 -458.168C611.342 -458.085 612.007 -457.996 612.67 -457.903L612.601 -457.408C613.264 -457.315 613.925 -457.217 614.585 -457.114L614.662 -457.608C615.328 -457.504 615.992 -457.396 616.655 -457.282L616.57 -456.789C617.231 -456.677 617.889 -456.559 618.546 -456.436L618.638 -456.928C619.297 -456.805 619.955 -456.677 620.611 -456.545L620.512 -456.055C621.17 -455.922 621.827 -455.784 622.482 -455.642L622.588 -456.13C623.246 -455.987 623.901 -455.839 624.555 -455.687L624.441 -455.2C625.092 -455.048 625.742 -454.891 626.389 -454.73L626.51 -455.215C627.163 -455.052 627.815 -454.885 628.464 -454.713L628.336 -454.229C628.984 -454.058 629.63 -453.881 630.274 -453.7L630.41 -454.181C631.056 -453.999 631.701 -453.813 632.343 -453.622L632.201 -453.142C632.843 -452.951 633.483 -452.756 634.12 -452.555L634.27 -453.032C634.912 -452.831 635.553 -452.624 636.191 -452.413L636.034 -451.939C636.669 -451.729 637.303 -451.514 637.934 -451.294L638.098 -451.767C638.733 -451.546 639.365 -451.321 639.995 -451.092L639.824 -450.622C640.454 -450.392 641.082 -450.158 641.707 -449.919L641.886 -450.387C642.514 -450.147 643.14 -449.903 643.763 -449.654L643.578 -449.19C644.199 -448.942 644.818 -448.69 645.434 -448.433L645.626 -448.895C646.248 -448.636 646.867 -448.372 647.483 -448.105L647.284 -447.646C647.899 -447.379 648.511 -447.108 649.12 -446.832L649.326 -447.288C649.938 -447.011 650.547 -446.73 651.154 -446.444L650.941 -445.992C651.548 -445.707 652.151 -445.417 652.753 -445.123L652.972 -445.572C653.576 -445.277 654.178 -444.977 654.777 -444.673L654.55 -444.227C655.147 -443.924 655.741 -443.616 656.332 -443.305L656.565 -443.747C657.16 -443.434 657.752 -443.116 658.341 -442.794L658.102 -442.355C658.689 -442.034 659.275 -441.709 659.857 -441.379L660.103 -441.814C660.688 -441.483 661.27 -441.148 661.849 -440.808L661.596 -440.377C662.174 -440.038 662.748 -439.696 663.32 -439.349L663.579 -439.776C664.154 -439.427 664.726 -439.074 665.295 -438.717L665.03 -438.294C665.597 -437.938 666.161 -437.578 666.722 -437.214L666.994 -437.633C667.558 -437.268 668.118 -436.898 668.676 -436.525L668.397 -436.109C668.954 -435.736 669.507 -435.359 670.058 -434.978L670.342 -435.389C670.895 -435.007 671.444 -434.62 671.99 -434.23L671.7 -433.823C672.244 -433.434 672.785 -433.041 673.323 -432.644L673.62 -433.046C674.161 -432.647 674.699 -432.244 675.233 -431.836L674.931 -431.439C675.24 -431.203 675.548 -430.966 675.856 -430.728C676.077 -430.556 676.298 -430.383 676.519 -430.21L676.828 -430.603C677.356 -430.188 677.881 -429.77 678.403 -429.347L678.088 -428.958C678.608 -428.537 679.125 -428.112 679.639 -427.683L679.959 -428.066C680.475 -427.635 680.987 -427.201 681.496 -426.762L681.17 -426.383C681.356 -426.223 681.542 -426.062 681.727 -425.901C682.046 -425.622 682.364 -425.343 682.681 -425.062L683.013 -425.436C683.515 -424.99 684.014 -424.54 684.51 -424.086L684.172 -423.717C684.666 -423.265 685.156 -422.81 685.643 -422.35L685.986 -422.714C686.475 -422.253 686.96 -421.788 687.441 -421.32L687.093 -420.961C687.572 -420.495 688.049 -420.025 688.521 -419.551L688.875 -419.904C689.35 -419.428 689.82 -418.949 690.288 -418.466L689.928 -418.119C690.394 -417.638 690.856 -417.153 691.314 -416.665L691.678 -417.008C692.138 -416.518 692.594 -416.025 693.047 -415.528L692.677 -415.191C693.128 -414.697 693.575 -414.199 694.018 -413.697L694.392 -414.028C694.837 -413.525 695.278 -413.018 695.715 -412.508L695.336 -412.182C695.771 -411.674 696.203 -411.163 696.631 -410.648L697.015 -410.967C697.445 -410.451 697.87 -409.931 698.291 -409.408L697.902 -409.094C698.322 -408.573 698.738 -408.049 699.15 -407.521L699.544 -407.829C699.957 -407.299 700.367 -406.767 700.773 -406.231L700.374 -405.929C700.777 -405.396 701.177 -404.859 701.573 -404.319L701.976 -404.615C702.373 -404.073 702.766 -403.529 703.155 -402.981L702.747 -402.691C703.135 -402.145 703.518 -401.597 703.898 -401.045L704.31 -401.328C704.69 -400.775 705.066 -400.218 705.438 -399.659L705.022 -399.382C705.392 -398.825 705.758 -398.265 706.121 -397.702L706.541 -397.973C706.905 -397.408 707.264 -396.84 707.619 -396.269L707.194 -396.005C707.548 -395.437 707.897 -394.866 708.241 -394.292L708.67 -394.55C709.016 -393.974 709.357 -393.396 709.694 -392.815L709.262 -392.564C709.598 -391.985 709.929 -391.403 710.257 -390.819L710.693 -391.063C711.021 -390.477 711.345 -389.889 711.664 -389.297L711.224 -389.06C711.542 -388.471 711.855 -387.881 712.164 -387.287L712.608 -387.518C712.918 -386.922 713.223 -386.324 713.525 -385.723L713.078 -385.499C713.377 -384.9 713.673 -384.299 713.964 -383.695L714.414 -383.913C714.705 -383.308 714.992 -382.702 715.274 -382.092L714.821 -381.882C715.102 -381.275 715.379 -380.666 715.651 -380.054L716.108 -380.257C716.381 -379.643 716.649 -379.026 716.913 -378.407L716.454 -378.211C716.715 -377.597 716.973 -376.98 717.226 -376.361L717.689 -376.55C717.942 -375.929 718.191 -375.305 718.436 -374.679L717.97 -374.497C718.214 -373.873 718.453 -373.247 718.687 -372.619L719.156 -372.793C719.39 -372.165 719.62 -371.534 719.845 -370.902L719.374 -370.734C719.597 -370.104 719.817 -369.473 720.031 -368.839L720.505 -368.999C720.72 -368.362 720.931 -367.724 721.137 -367.083L720.661 -366.93C720.865 -366.293 721.065 -365.655 721.26 -365.014L721.738 -365.159C721.933 -364.518 722.124 -363.875 722.31 -363.229L721.829 -363.091C722.014 -362.448 722.194 -361.803 722.37 -361.156L722.852 -361.287C723.028 -360.638 723.199 -359.988 723.365 -359.336L722.881 -359.212C722.988 -358.79 723.094 -358.367 723.197 -357.943C723.252 -357.718 723.307 -357.493 723.36 -357.267L723.847 -357.383C724.002 -356.73 724.153 -356.075 724.299 -355.418L723.811 -355.31C723.957 -354.656 724.097 -354 724.233 -353.342L724.723 -353.443C724.858 -352.787 724.988 -352.13 725.114 -351.471L724.623 -351.378C724.748 -350.721 724.868 -350.063 724.983 -349.404L725.475 -349.49C725.591 -348.827 725.702 -348.163 725.808 -347.498L725.314 -347.419C725.419 -346.76 725.519 -346.099 725.614 -345.436L726.109 -345.507C726.204 -344.844 726.294 -344.179 726.38 -343.513L725.884 -343.449C725.969 -342.786 726.049 -342.12 726.124 -341.453L726.621 -341.509C726.696 -340.842 726.766 -340.173 726.831 -339.502L726.334 -339.454C726.398 -338.791 726.458 -338.126 726.513 -337.46L727.011 -337.501C727.066 -336.832 727.116 -336.162 727.161 -335.49L726.662 -335.457C726.707 -334.788 726.747 -334.117 726.782 -333.445L727.281 -333.471C727.316 -332.804 727.346 -332.135 727.371 -331.465L726.871 -331.446C726.896 -330.779 726.916 -330.111 726.931 -329.441L727.431 -329.453C727.446 -328.78 727.456 -328.107 727.461 -327.432L726.961 -327.429C726.963 -327.093 726.964 -326.756 726.964 -326.419V-325.884H727.464V-324.813H726.964V-324.277C726.964 -323.94 726.966 -323.604 726.968 -323.267L727.468 -323.271C727.473 -322.6 727.484 -321.931 727.499 -321.263L726.999 -321.251C727.014 -320.581 727.035 -319.911 727.06 -319.243L727.56 -319.262C727.585 -318.595 727.615 -317.929 727.65 -317.265L727.151 -317.239C727.187 -316.566 727.228 -315.895 727.274 -315.225L727.772 -315.259C727.818 -314.591 727.869 -313.925 727.925 -313.26L727.426 -313.219C727.482 -312.551 727.543 -311.885 727.609 -311.22L728.107 -311.27C728.173 -310.603 728.244 -309.938 728.32 -309.274L727.823 -309.217C727.9 -308.55 727.981 -307.883 728.068 -307.219L728.564 -307.283C728.65 -306.621 728.741 -305.96 728.837 -305.301L728.343 -305.229C728.439 -304.565 728.541 -303.902 728.648 -303.241L729.142 -303.321C729.248 -302.66 729.36 -302 729.477 -301.342L728.984 -301.255C729.101 -300.594 729.223 -299.935 729.35 -299.278L729.841 -299.373C729.968 -298.717 730.099 -298.063 730.236 -297.411L729.746 -297.309C729.884 -296.651 730.026 -295.994 730.174 -295.339L730.661 -295.449C730.808 -294.797 730.96 -294.146 731.117 -293.497L730.63 -293.38C730.788 -292.729 730.95 -292.079 731.116 -291.432L731.601 -291.556C731.767 -290.908 731.939 -290.262 732.116 -289.617L731.634 -289.485C731.811 -288.838 731.993 -288.192 732.18 -287.548L732.66 -287.688C732.846 -287.046 733.037 -286.407 733.233 -285.77L732.755 -285.623C732.952 -284.981 733.154 -284.342 733.36 -283.704L733.836 -283.858C734.042 -283.222 734.253 -282.587 734.469 -281.955L733.995 -281.793C734.212 -281.159 734.433 -280.526 734.658 -279.896L735.129 -280.064C735.354 -279.435 735.584 -278.808 735.818 -278.183L735.35 -278.008C735.586 -277.379 735.826 -276.752 736.072 -276.128L736.537 -276.311C736.781 -275.689 737.03 -275.069 737.283 -274.451L736.821 -274.262C737.075 -273.642 737.334 -273.024 737.598 -272.408L738.057 -272.605C738.32 -271.99 738.588 -271.377 738.861 -270.767L738.404 -270.563C738.677 -269.95 738.955 -269.34 739.237 -268.732L739.691 -268.943C739.972 -268.337 740.258 -267.734 740.548 -267.133L740.098 -266.916C740.185 -266.734 740.273 -266.553 740.362 -266.372C740.568 -265.95 740.776 -265.529 740.986 -265.11L741.433 -265.334C741.733 -264.737 742.037 -264.142 742.346 -263.549L741.902 -263.318C742.212 -262.724 742.526 -262.132 742.844 -261.542L743.284 -261.78C743.601 -261.192 743.923 -260.606 744.249 -260.023L743.813 -259.779C744.14 -259.194 744.472 -258.611 744.808 -258.03L745.241 -258.281C745.576 -257.703 745.915 -257.128 746.258 -256.555L745.829 -256.298C746.174 -255.723 746.523 -255.151 746.877 -254.581L747.302 -254.844C747.654 -254.276 748.01 -253.711 748.371 -253.149L747.95 -252.879C748.312 -252.314 748.677 -251.753 749.048 -251.194L749.464 -251.47C749.833 -250.913 750.206 -250.359 750.583 -249.808L750.17 -249.525C750.549 -248.972 750.932 -248.421 751.319 -247.873L751.727 -248.161C752.112 -247.616 752.502 -247.073 752.895 -246.533L752.491 -246.239C752.642 -246.031 752.793 -245.825 752.945 -245.619C753.191 -245.285 753.438 -244.953 753.687 -244.622L754.087 -244.923C754.488 -244.388 754.894 -243.857 755.303 -243.329L754.908 -243.023C755.165 -242.691 755.424 -242.36 755.685 -242.03C755.84 -241.834 755.996 -241.638 756.152 -241.442L756.542 -241.754C756.959 -241.233 757.38 -240.714 757.805 -240.199L757.419 -239.881C757.845 -239.363 758.276 -238.849 758.709 -238.337L759.091 -238.661C759.523 -238.152 759.959 -237.646 760.399 -237.143L760.023 -236.814C760.464 -236.309 760.909 -235.808 761.358 -235.31L761.73 -235.645C762.177 -235.148 762.628 -234.655 763.082 -234.166L762.716 -233.826C763.172 -233.334 763.632 -232.846 764.095 -232.362L764.457 -232.708C764.919 -232.225 765.384 -231.746 765.853 -231.27L765.497 -230.919C765.967 -230.441 766.441 -229.967 766.919 -229.497L767.27 -229.853C767.746 -229.384 768.225 -228.919 768.708 -228.457L768.362 -228.095C768.846 -227.632 769.334 -227.172 769.826 -226.716L770.166 -227.082C770.656 -226.628 771.148 -226.177 771.645 -225.73L771.31 -225.358C771.808 -224.909 772.309 -224.464 772.814 -224.023L773.143 -224.399C773.646 -223.959 774.152 -223.523 774.661 -223.091L774.337 -222.71C774.849 -222.276 775.363 -221.845 775.881 -221.419L776.199 -221.805C776.714 -221.38 777.233 -220.959 777.754 -220.542L777.442 -220.152C777.688 -219.955 777.935 -219.76 778.182 -219.565C778.462 -219.345 778.742 -219.126 779.023 -218.908L779.329 -219.303C779.857 -218.894 780.388 -218.488 780.923 -218.087L780.622 -217.687C781.158 -217.284 781.697 -216.886 782.239 -216.491L782.533 -216.895C783.073 -216.502 783.616 -216.112 784.161 -215.727L783.873 -215.319C784.421 -214.932 784.972 -214.549 785.525 -214.17L785.808 -214.583C786.359 -214.206 786.913 -213.833 787.47 -213.464L787.194 -213.048C787.544 -212.815 787.896 -212.585 788.249 -212.356C788.458 -212.22 788.668 -212.085 788.879 -211.95L789.149 -212.371C789.711 -212.01 790.276 -211.654 790.844 -211.301L790.581 -210.877C791.151 -210.523 791.723 -210.174 792.298 -209.829L792.555 -210.258C793.128 -209.915 793.703 -209.576 794.281 -209.241L794.03 -208.808C794.611 -208.472 795.193 -208.141 795.779 -207.813L796.023 -208.249C796.606 -207.923 797.192 -207.601 797.78 -207.284L797.542 -206.844C798.132 -206.526 798.724 -206.212 799.318 -205.902L799.549 -206.346C800.142 -206.037 800.737 -205.733 801.334 -205.433L801.11 -204.986C801.322 -204.88 801.535 -204.774 801.748 -204.668C802.136 -204.476 802.526 -204.286 802.916 -204.098L803.133 -204.548C803.734 -204.258 804.337 -203.972 804.943 -203.691L804.732 -203.237C805.34 -202.955 805.95 -202.677 806.563 -202.404L806.767 -202.861C807.377 -202.588 807.99 -202.32 808.605 -202.057L808.408 -201.598C809.024 -201.334 809.641 -201.075 810.262 -200.821L810.451 -201.283C811.069 -201.03 811.689 -200.781 812.311 -200.537L812.128 -200.072C812.752 -199.826 813.379 -199.586 814.008 -199.35L814.183 -199.818C814.808 -199.584 815.435 -199.354 816.064 -199.129L815.895 -198.658C816.526 -198.433 817.159 -198.212 817.793 -197.995L817.955 -198.469C818.587 -198.253 819.221 -198.042 819.858 -197.836L819.704 -197.36C820.341 -197.154 820.981 -196.952 821.623 -196.755L821.769 -197.233C822.407 -197.037 823.046 -196.846 823.687 -196.66L823.548 -196.18C824.192 -195.993 824.837 -195.811 825.485 -195.634L825.617 -196.116C826.262 -195.939 826.908 -195.768 827.556 -195.601L827.432 -195.116C828.079 -194.95 828.729 -194.788 829.38 -194.63L829.497 -195.117C830.146 -194.96 830.797 -194.808 831.449 -194.661L831.339 -194.174C831.994 -194.026 832.651 -193.884 833.309 -193.746L833.411 -194.236C834.063 -194.099 834.717 -193.968 835.372 -193.841L835.278 -193.35C835.935 -193.223 836.594 -193.101 837.255 -192.984L837.342 -193.477C838 -193.36 838.659 -193.248 839.321 -193.142L839.241 -192.648C839.53 -192.601 839.818 -192.556 840.108 -192.511C840.481 -192.453 840.854 -192.397 841.228 -192.343L841.301 -192.837C841.96 -192.741 842.621 -192.65 843.283 -192.564L843.218 -192.068C843.883 -191.981 844.549 -191.9 845.217 -191.823L845.274 -192.32C845.938 -192.244 846.603 -192.173 847.27 -192.107L847.22 -191.609C847.556 -191.576 847.893 -191.544 848.23 -191.513C848.559 -191.483 848.889 -191.454 849.218 -191.426L849.26 -191.925C849.925 -191.869 850.591 -191.818 851.259 -191.772L851.225 -191.274C851.895 -191.228 852.566 -191.187 853.239 -191.151L853.265 -191.65C853.929 -191.615 854.595 -191.585 855.261 -191.56L855.242 -191.06C855.911 -191.035 856.58 -191.014 857.251 -190.999L857.263 -191.499C857.931 -191.484 858.6 -191.473 859.271 -191.468L859.267 -190.968C859.603 -190.966 859.94 -190.964 860.277 -190.964H860.813V-191.464H861.884V-190.964H862.419C862.755 -190.964 863.09 -190.963 863.424 -190.961L863.428 -191.461C864.1 -191.456 864.77 -191.446 865.439 -191.431L865.428 -190.931C866.095 -190.916 866.76 -190.897 867.424 -190.872L867.442 -191.372C868.109 -191.347 868.775 -191.318 869.439 -191.283L869.414 -190.784C870.083 -190.749 870.75 -190.71 871.416 -190.665L871.45 -191.164C872.118 -191.119 872.785 -191.07 873.451 -191.015L873.41 -190.517C874.074 -190.463 874.735 -190.404 875.396 -190.34L875.444 -190.837C876.111 -190.773 876.777 -190.703 877.441 -190.629L877.386 -190.132C878.05 -190.057 878.712 -189.978 879.373 -189.894L879.436 -190.39C880.1 -190.305 880.762 -190.216 881.422 -190.122L881.351 -189.627C882.011 -189.533 882.669 -189.434 883.325 -189.33L883.403 -189.824C884.066 -189.719 884.727 -189.609 885.387 -189.495L885.301 -189.002C885.958 -188.888 886.613 -188.769 887.267 -188.645L887.36 -189.137C888.016 -189.012 888.67 -188.883 889.323 -188.75L889.222 -188.26C889.411 -188.221 889.599 -188.182 889.788 -188.142C890.253 -188.045 890.718 -187.945 891.182 -187.842L891.29 -188.33C891.944 -188.186 892.596 -188.036 893.246 -187.882L893.131 -187.396C893.779 -187.242 894.425 -187.084 895.069 -186.921L895.191 -187.406C895.841 -187.241 896.488 -187.072 897.134 -186.898L897.004 -186.416C897.648 -186.242 898.291 -186.063 898.931 -185.88L899.069 -186.361C899.712 -186.177 900.353 -185.989 900.991 -185.796L900.847 -185.317C901.485 -185.124 902.121 -184.927 902.754 -184.724L902.906 -185.201C903.545 -184.997 904.181 -184.788 904.815 -184.575L904.656 -184.101C905.288 -183.889 905.918 -183.672 906.545 -183.451L906.711 -183.922C907.342 -183.7 907.97 -183.473 908.595 -183.241L908.422 -182.772C909.048 -182.54 909.672 -182.304 910.293 -182.062L910.474 -182.529C911.098 -182.287 911.72 -182.04 912.339 -181.789L912.151 -181.326C912.423 -181.215 912.695 -181.104 912.966 -180.992C913.31 -180.85 913.653 -180.707 913.995 -180.562L914.19 -181.022C914.807 -180.761 915.421 -180.496 916.034 -180.225L915.832 -179.768C916.442 -179.499 917.049 -179.225 917.654 -178.947L917.863 -179.401C918.471 -179.122 919.075 -178.838 919.678 -178.55L919.462 -178.099C920.064 -177.811 920.663 -177.519 921.259 -177.223L921.482 -177.67C922.081 -177.372 922.678 -177.07 923.272 -176.763L923.043 -176.319C923.635 -176.013 924.224 -175.704 924.811 -175.389L925.047 -175.83C925.637 -175.514 926.224 -175.194 926.808 -174.87L926.565 -174.432C927.148 -174.109 927.729 -173.781 928.306 -173.448L928.556 -173.882C929.135 -173.548 929.712 -173.21 930.286 -172.868L930.031 -172.439C930.603 -172.098 931.172 -171.753 931.739 -171.404L932.001 -171.829C932.571 -171.478 933.138 -171.122 933.702 -170.763L933.434 -170.341C933.698 -170.173 933.962 -170.003 934.225 -169.833C934.521 -169.641 934.816 -169.448 935.111 -169.254L935.386 -169.672C935.944 -169.304 936.499 -168.932 937.051 -168.556L936.77 -168.143C937.321 -167.767 937.869 -167.388 938.415 -167.005L938.702 -167.414C939.249 -167.029 939.794 -166.64 940.335 -166.247L940.041 -165.843C940.286 -165.664 940.531 -165.486 940.775 -165.306C941.067 -165.091 941.358 -164.874 941.648 -164.657L941.948 -165.057C942.484 -164.656 943.016 -164.25 943.545 -163.841L943.239 -163.446C943.767 -163.038 944.291 -162.627 944.812 -162.211L945.123 -162.602C945.646 -162.185 946.166 -161.764 946.682 -161.34L946.364 -160.954C946.879 -160.53 947.39 -160.103 947.899 -159.672L948.222 -160.054C948.732 -159.621 949.239 -159.185 949.742 -158.745L949.413 -158.368C949.647 -158.164 949.879 -157.959 950.111 -157.754C950.378 -157.517 950.643 -157.28 950.908 -157.042L951.243 -157.413C951.74 -156.965 952.233 -156.514 952.723 -156.059L952.383 -155.693C952.871 -155.239 953.356 -154.782 953.837 -154.321L954.183 -154.682C954.666 -154.22 955.146 -153.754 955.622 -153.284L955.271 -152.929C955.457 -152.745 955.642 -152.561 955.827 -152.377C956.113 -152.091 956.399 -151.803 956.683 -151.514L957.04 -151.865C957.509 -151.388 957.974 -150.908 958.436 -150.424L958.074 -150.079C958.534 -149.597 958.991 -149.112 959.444 -148.623L959.81 -148.963C960.265 -148.473 960.716 -147.979 961.163 -147.481L960.791 -147.147C961.236 -146.651 961.678 -146.153 962.116 -145.651L962.493 -145.979C962.932 -145.475 963.368 -144.968 963.8 -144.457L963.418 -144.134C963.849 -143.626 964.275 -143.114 964.698 -142.599L965.085 -142.916C965.509 -142.399 965.929 -141.879 966.345 -141.356L965.954 -141.045C966.369 -140.523 966.78 -139.999 967.187 -139.471L967.583 -139.777C967.991 -139.247 968.396 -138.715 968.797 -138.179L968.396 -137.879C968.62 -137.581 968.841 -137.282 969.062 -136.981C969.236 -136.745 969.409 -136.508 969.581 -136.27L969.986 -136.564C970.378 -136.022 970.767 -135.478 971.151 -134.93L970.742 -134.643C971.124 -134.098 971.503 -133.549 971.878 -132.998L972.292 -133.279C972.667 -132.726 973.039 -132.171 973.407 -131.612L972.989 -131.337C973.355 -130.781 973.717 -130.222 974.075 -129.66L974.497 -129.928C974.856 -129.364 975.211 -128.797 975.562 -128.227L975.136 -127.965C975.485 -127.398 975.83 -126.828 976.171 -126.255L976.601 -126.511C976.942 -125.937 977.28 -125.359 977.613 -124.78L977.18 -124.531C977.512 -123.953 977.839 -123.373 978.163 -122.79L978.6 -123.032C978.924 -122.448 979.245 -121.86 979.56 -121.27L979.12 -121.034C979.434 -120.448 979.744 -119.858 980.049 -119.266L980.493 -119.496C980.8 -118.902 981.102 -118.305 981.4 -117.706L980.952 -117.483C981.249 -116.886 981.541 -116.287 981.829 -115.685L982.28 -115.901C982.568 -115.298 982.852 -114.694 983.131 -114.086L982.677 -113.877C982.955 -113.273 983.229 -112.665 983.498 -112.055L983.956 -112.257C984.226 -111.645 984.492 -111.031 984.753 -110.414L984.293 -110.219C984.389 -109.991 984.485 -109.763 984.58 -109.535C984.741 -109.149 984.9 -108.762 985.058 -108.375L985.521 -108.563C985.772 -107.944 986.019 -107.322 986.261 -106.699L985.795 -106.518C986.036 -105.896 986.273 -105.273 986.505 -104.647L986.974 -104.821C987.206 -104.195 987.434 -103.566 987.657 -102.936L987.185 -102.769C987.407 -102.142 987.625 -101.513 987.837 -100.881L988.311 -101.041C988.525 -100.407 988.733 -99.7712 988.937 -99.1332L988.461 -98.9809C988.515 -98.8127 988.568 -98.6445 988.622 -98.476C988.769 -98.0091 988.914 -97.5411 989.056 -97.0721L989.534 -97.2172C989.728 -96.5785 989.917 -95.9379 990.101 -95.2953L989.621 -95.1575C989.804 -94.5173 989.983 -93.8752 990.157 -93.2313L990.64 -93.3618C990.815 -92.7159 990.984 -92.0681 991.15 -91.4184L990.665 -91.2952C990.829 -90.6514 990.987 -90.0057 991.142 -89.3582L991.628 -89.4739C991.783 -88.824 991.933 -88.1723 992.078 -87.5188L991.59 -87.4104C991.734 -86.7594 991.874 -86.1066 992.009 -85.4521L992.499 -85.5531C992.633 -84.9 992.763 -84.2451 992.888 -83.5887L992.397 -83.4952C992.521 -82.8418 992.641 -82.1868 992.755 -81.5303L993.248 -81.6163C993.363 -80.9573 993.473 -80.2965 993.579 -79.6343L993.085 -79.5557C993.19 -78.8988 993.289 -78.2404 993.384 -77.5804L993.879 -77.6515C993.974 -76.9913 994.064 -76.3297 994.149 -75.6665L993.653 -75.6029C993.737 -74.9422 993.817 -74.2801 993.892 -73.6166L994.389 -73.6727C994.464 -73.008 994.534 -72.3419 994.599 -71.6744L994.102 -71.6259C994.166 -70.9654 994.226 -70.3035 994.281 -69.6403L994.779 -69.6814C994.834 -69.0157 994.884 -68.3488 994.929 -67.6805L994.43 -67.6469C994.475 -66.9811 994.515 -66.314 994.55 -65.6457L995.049 -65.6718C995.084 -65.0068 995.114 -64.3406 995.139 -63.6732L994.639 -63.6545C994.664 -62.9904 994.684 -62.325 994.699 -61.6585L995.198 -61.6697C995.213 -61.0007 995.223 -60.3306 995.228 -59.6594L994.729 -59.6556C994.731 -59.3213 994.732 -58.9866 994.732 -58.6517V-58.3839H995.232V-57.8483H994.732V-57.5806C994.732 -57.2426 994.733 -56.905 994.736 -56.5676L995.236 -56.5713C995.241 -55.8989 995.251 -55.2278 995.265 -54.5579L994.765 -54.547C994.78 -53.8747 994.799 -53.2037 994.824 -52.5341L995.323 -52.5522C995.348 -51.8845 995.377 -51.2181 995.411 -50.553L994.911 -50.5275C994.924 -50.2866 994.937 -50.0458 994.95 -49.8052C994.974 -49.3721 995.001 -48.9396 995.029 -48.5077L995.528 -48.5405C995.572 -47.871 995.621 -47.2031 995.675 -46.5366L995.176 -46.4965C995.23 -45.8275 995.289 -45.16 995.352 -44.494L995.85 -44.5414C995.914 -43.873 995.982 -43.2063 996.056 -42.5411L995.559 -42.4862C995.633 -41.8163 995.712 -41.1479 995.795 -40.4812L996.291 -40.5435C996.375 -39.8792 996.463 -39.2166 996.556 -38.5555L996.061 -38.4858C996.105 -38.167 996.151 -37.8484 996.198 -37.5303C996.25 -37.1845 996.302 -36.8391 996.356 -36.4942L996.85 -36.5712C996.953 -35.9072 997.062 -35.2451 997.175 -34.5845L996.682 -34.5001C996.795 -33.8372 996.914 -33.176 997.037 -32.5165L997.528 -32.6083C997.651 -31.9513 997.778 -31.2961 997.91 -30.6426L997.42 -30.5435C997.554 -29.8822 997.693 -29.2227 997.836 -28.5651L998.324 -28.6716C998.467 -28.0164 998.615 -27.3632 998.767 -26.7118L998.28 -26.598C998.433 -25.9442 998.591 -25.2922 998.753 -24.6423L999.238 -24.7635C999.401 -24.1126 999.568 -23.4636 999.74 -22.8167L999.257 -22.6882C999.43 -22.0375 999.608 -21.3887 999.79 -20.7421L1000.27 -20.8779C1000.45 -20.2336 1000.64 -19.5915 1000.83 -18.9514L1000.35 -18.8083C1000.54 -18.164 1000.74 -17.5218 1000.94 -16.8817L1001.42 -17.032C1001.62 -16.3921 1001.83 -15.7543 1002.04 -15.1187L1001.56 -14.9611C1001.78 -14.3231 1001.99 -13.6873 1002.21 -13.0537L1002.69 -13.2185C1002.91 -12.5867 1003.13 -11.957 1003.36 -11.3297L1002.89 -11.1578C1003.12 -10.5252 1003.36 -9.89496 1003.6 -9.26703L1004.07 -9.44611C1004.31 -8.82056 1004.55 -8.19733 1004.8 -7.57654L1004.34 -7.39044C1004.45 -7.11804 1004.56 -6.84613 1004.67 -6.57465C1004.81 -6.22504 1004.95 -5.87622 1005.1 -5.5282L1005.56 -5.72137C1005.82 -5.10248 1006.08 -4.48602 1006.35 -3.87207L1005.89 -3.67188C1006.16 -3.05548 1006.44 -2.44159 1006.72 -1.8302L1007.17 -2.03735C1007.45 -1.42834 1007.73 -0.821838 1008.02 -0.217896L1007.56 -0.00384521C1007.85 0.604309 1008.15 1.20978 1008.44 1.81268L1008.89 1.59174C1009.19 2.19299 1009.49 2.79156 1009.79 3.38751L1009.35 3.61523C1009.48 3.87097 1009.61 4.12622 1009.74 4.38104C1009.92 4.72217 1010.1 5.06238 1010.28 5.40167L1010.72 5.16718C1011.03 5.75879 1011.35 6.34772 1011.68 6.93384L1011.24 7.17505C1011.56 7.76434 1011.89 8.35089 1012.22 8.93457L1012.66 8.68665C1012.99 9.26813 1013.33 9.84674 1013.67 10.4225L1013.24 10.6771C1013.58 11.2556 1013.92 11.8313 1014.28 12.4041L1014.7 12.1431C1015.05 12.7147 1015.41 13.2834 1015.76 13.8491L1015.34 14.1166C1015.7 14.6846 1016.07 15.2495 1016.43 15.8114L1016.85 15.5375C1017.22 16.0975 1017.59 16.6545 1017.96 17.2085L1017.55 17.4887C1017.93 18.0458 1018.31 18.5999 1018.69 19.1508L1019.1 18.8642C1019.49 19.413 1019.87 19.9587 1020.27 20.5013L1019.86 20.7941C1020.25 21.3387 1020.65 21.8802 1021.05 22.4185L1021.45 22.1197C1021.85 22.6568 1022.26 23.1907 1022.67 23.7214L1022.27 24.0264C1022.68 24.5591 1023.09 25.0886 1023.51 25.6148L1023.9 25.3038C1024.32 25.8281 1024.74 26.3489 1025.16 26.8666L1024.78 27.1835C1025.2 27.7035 1025.63 28.2202 1026.07 28.7335L1026.45 28.4108C1026.88 28.9222 1027.32 29.4304 1027.76 29.9351L1027.38 30.2635C1027.82 30.7701 1028.27 31.2734 1028.72 31.7731L1029.09 31.4388C1029.54 31.9368 1029.99 32.4314 1030.44 32.9224L1030.08 33.2623C1030.53 33.7553 1030.99 34.2448 1031.46 34.7307L1031.82 34.3854C1032.28 34.8695 1032.75 35.35 1033.22 35.827L1032.86 36.1779C1033.33 36.6566 1033.81 37.1318 1034.29 37.6033L1034.64 37.2471C1035.11 37.7169 1035.59 38.183 1036.08 38.6455L1035.73 39.007C1036.22 39.4713 1036.71 39.9318 1037.2 40.3886L1037.54 40.0219C1038.03 40.4769 1038.53 40.9282 1039.03 41.3757L1038.69 41.7476C1039.19 42.1967 1039.69 42.6421 1040.2 43.0836L1040.53 42.7067C1041.03 43.1465 1041.54 43.5826 1042.05 44.0148L1041.73 44.3967C1042.24 44.8305 1042.76 45.2604 1043.28 45.6865L1043.6 45.2997C1044.12 45.7238 1044.64 46.144 1045.16 46.5603L1044.85 46.9518C1045.38 47.3698 1045.91 47.7837 1046.44 48.1937L1046.74 47.7974C1047.27 48.2059 1047.81 48.6104 1048.34 49.0109L1048.05 49.4117C1048.58 49.813 1049.13 50.2104 1049.67 50.6037L1049.96 50.1984C1050.51 50.5902 1051.05 50.978 1051.6 51.3618L1051.31 51.7715C1051.86 52.1567 1052.42 52.5378 1052.98 52.9149L1053.26 52.5007C1053.81 52.8756 1054.37 53.2465 1054.93 53.6131L1054.65 54.0314C1055.21 54.3994 1055.78 54.7631 1056.35 55.1227L1056.62 54.7003C1057.18 55.0585 1057.75 55.4125 1058.32 55.7624L1058.06 56.1888C1058.35 56.3641 1058.63 56.5383 1058.92 56.7114C1059.21 56.8846 1059.5 57.0567 1059.79 57.2278L1060.04 56.7974C1060.62 57.1378 1061.2 57.474 1061.78 57.8059L1061.53 58.2402C1062.11 58.5734 1062.7 58.9022 1063.29 59.2268L1063.53 58.7889C1064.12 59.1117 1064.71 59.4302 1065.3 59.7444L1065.06 60.186C1065.66 60.5008 1066.25 60.8112 1066.85 61.1173L1067.08 60.6722C1067.67 60.9771 1068.27 61.2776 1068.87 61.5738L1068.65 62.0223C1068.81 62.1018 1068.97 62.1809 1069.14 62.2597C1069.58 62.4755 1070.02 62.6889 1070.47 62.8999L1070.68 62.4481C1071.29 62.7342 1071.89 63.0159 1072.5 63.2931L1072.29 63.7482C1072.91 64.0264 1073.52 64.3003 1074.14 64.5696L1074.34 64.1115C1074.95 64.3797 1075.57 64.6435 1076.19 64.9027L1075.99 65.3638C1076.61 65.6229 1077.23 65.8774 1077.85 66.1273L1078.04 65.6633C1078.66 65.9123 1079.28 66.1567 1079.91 66.3967L1079.73 66.8635C1080.36 67.1043 1080.99 67.3406 1081.62 67.5722L1081.79 67.1027C1082.42 67.3323 1083.05 67.5575 1083.68 67.778L1083.52 68.2501C1084.15 68.4712 1084.79 68.6877 1085.43 68.8995L1085.58 68.425C1086.22 68.636 1086.86 68.8425 1087.5 69.0443L1087.35 69.5211C1087.99 69.7229 1088.63 69.92 1089.27 70.1124L1089.42 69.6334C1090.06 69.8245 1090.7 70.011 1091.34 70.1929L1091.21 70.6741C1091.43 70.7369 1091.65 70.7991 1091.87 70.8608C1092.3 70.9784 1092.73 71.0939 1093.15 71.2074L1093.28 70.7242C1093.93 70.8962 1094.58 71.0636 1095.23 71.2262L1095.11 71.7112C1095.76 71.8736 1096.41 72.0312 1097.06 72.1841L1097.18 71.6973C1097.83 71.8495 1098.48 71.9971 1099.14 72.14L1099.03 72.6285C1099.69 72.7719 1100.35 72.9104 1101.01 73.0441L1101.11 72.5541C1101.76 72.6862 1102.42 72.8137 1103.07 72.9363L1102.98 73.4278C1103.64 73.5508 1104.3 73.6692 1104.96 73.7827L1105.05 73.2899C1105.71 73.403 1106.37 73.5112 1107.04 73.6146L1106.96 74.1087C1107.28 74.1585 1107.6 74.2073 1107.92 74.2549C1108.26 74.3058 1108.61 74.3555 1108.95 74.4038L1109.02 73.9087C1109.68 74.0016 1110.34 74.0898 1111.01 74.1731L1110.95 74.6692C1111.61 74.7528 1112.28 74.8316 1112.95 74.9055L1113.01 74.4086C1113.67 74.482 1114.34 74.5506 1115.01 74.6143L1114.96 75.1121C1115.19 75.134 1115.42 75.1554 1115.65 75.1762C1116.09 75.2156 1116.52 75.2529 1116.96 75.2881L1117 74.7898C1117.67 74.8434 1118.34 74.8923 1119 74.9363L1118.97 75.4352C1119.64 75.4794 1120.32 75.5187 1120.99 75.553L1121.02 75.0537C1121.68 75.0876 1122.35 75.1167 1123.02 75.141L1123 75.6406C1123.67 75.665 1124.34 75.6845 1125.01 75.6992L1125.02 75.1993C1125.69 75.2139 1126.36 75.2237 1127.04 75.2286L1127.03 75.7286C1127.37 75.731 1127.71 75.7322 1128.04 75.7322H1128.58V75.2322H1129.65V75.7322H1130.19C1130.52 75.7322 1130.86 75.7335 1131.19 75.736L1131.19 75.2361C1131.86 75.2411 1132.53 75.2513 1133.2 75.2665L1133.19 75.7664C1133.61 75.776 1134.04 75.7877 1134.46 75.8013C1134.7 75.8092 1134.94 75.8177 1135.18 75.8269L1135.2 75.3273C1135.87 75.3525 1136.54 75.3829 1137.2 75.4182L1137.17 75.9175C1137.84 75.9529 1138.51 75.9935 1139.17 76.039L1139.21 75.5402C1139.87 75.5859 1140.54 75.6366 1141.2 75.6923L1141.16 76.1906C1141.82 76.2461 1142.49 76.3066 1143.15 76.372L1143.19 75.8745C1143.86 75.9406 1144.53 76.0117 1145.19 76.0878L1145.13 76.5845C1145.42 76.6176 1145.71 76.6517 1146 76.6866C1146.37 76.7319 1146.74 76.7789 1147.12 76.8274L1147.18 76.3316C1147.84 76.4178 1148.5 76.509 1149.16 76.6052L1149.09 77.0999C1149.75 77.196 1150.41 77.297 1151.06 77.4029L1151.14 76.9093C1151.8 77.0161 1152.46 77.1277 1153.12 77.2444L1153.04 77.7368C1153.69 77.853 1154.34 77.9741 1155 78.1L1155.09 77.6091C1155.75 77.7356 1156.4 77.8671 1157.05 78.0034L1156.95 78.4928C1157.6 78.6293 1158.26 78.7708 1158.91 78.9171L1159.02 78.4293C1159.67 78.5761 1160.32 78.7278 1160.97 78.8843L1160.85 79.3704C1161.5 79.5263 1162.14 79.687 1162.78 79.8525L1162.91 79.3683C1163.56 79.5352 1164.2 79.707 1164.85 79.8835L1164.72 80.3658C1165.36 80.5418 1166 80.7226 1166.64 80.9081L1166.78 80.428C1167.42 80.6142 1168.06 80.8052 1168.69 81.0009L1168.55 81.4789C1169.18 81.6744 1169.82 81.8746 1170.45 82.0795L1170.61 81.6038C1171.24 81.8099 1171.88 82.0208 1172.51 82.2363L1172.35 82.7095C1172.67 82.8196 1172.99 82.9308 1173.32 83.0433C1173.62 83.1503 1173.93 83.2584 1174.23 83.3675L1174.4 82.8967C1175.03 83.1218 1175.66 83.3516 1176.28 83.586L1176.11 84.0541C1176.73 84.2882 1177.35 84.5269 1177.97 84.7702L1178.15 84.3048C1178.78 84.549 1179.4 84.7977 1180.01 85.0511L1179.82 85.5137C1180.44 85.7662 1181.05 86.0231 1181.66 86.2846L1181.86 85.825C1182.47 86.0882 1183.09 86.3561 1183.7 86.6284L1183.49 87.085C1184.1 87.3562 1184.71 87.632 1185.31 87.9121L1185.52 87.4586C1186.13 87.7398 1186.73 88.0255 1187.33 88.3156L1187.11 88.7658C1187.71 89.0555 1188.31 89.3496 1188.91 89.6481L1189.13 89.2012C1189.73 89.5009 1190.32 89.8049 1190.92 90.1133L1190.68 90.5568C1191.01 90.7247 1191.33 90.8938 1191.65 91.0643C1191.92 91.2058 1192.18 91.3482 1192.45 91.4915L1192.68 91.0515C1193.27 91.3691 1193.86 91.6909 1194.44 92.017L1194.2 92.4534C1194.42 92.5764 1194.64 92.7 1194.86 92.8242C1195.22 93.0283 1195.57 93.2341 1195.93 93.4415L1196.18 93.0089C1196.76 93.3437 1197.34 93.6828 1197.91 94.0261L1197.65 94.4549C1197.89 94.5949 1198.12 94.7357 1198.35 94.8771C1198.69 95.0813 1199.02 95.287 1199.36 95.4942L1199.62 95.0693C1200.19 95.4215 1200.75 95.7779 1201.32 96.1384L1201.05 96.5594C1201.61 96.9185 1202.16 97.2818 1202.72 97.6491L1202.99 97.2322C1203.55 97.6011 1204.11 97.9739 1204.66 98.3509L1204.37 98.7635C1204.92 99.1395 1205.47 99.5194 1206.01 99.9033L1206.3 99.4948C1206.85 99.8801 1207.39 100.27 1207.93 100.663L1207.64 101.067C1208.17 101.459 1208.71 101.854 1209.24 102.254L1209.54 101.854C1210.08 102.256 1210.61 102.661 1211.14 103.071L1210.83 103.466C1211.36 103.874 1211.88 104.285 1212.4 104.701L1212.71 104.31C1213.23 104.727 1213.75 105.148 1214.27 105.573L1213.95 105.959C1214.46 106.382 1214.97 106.809 1215.48 107.24L1215.8 106.858C1216.31 107.291 1216.82 107.727 1217.32 108.167L1216.99 108.543C1217.49 108.981 1217.99 109.423 1218.49 109.869L1218.82 109.497C1219.32 109.945 1219.81 110.396 1220.3 110.85L1219.96 111.216C1220.45 111.669 1220.93 112.126 1221.41 112.586L1221.76 112.225C1222.24 112.686 1222.72 113.152 1223.19 113.62L1222.84 113.977C1223.32 114.444 1223.79 114.914 1224.26 115.388L1224.61 115.038C1225.08 115.513 1225.55 115.993 1226.01 116.475L1225.65 116.821C1226.11 117.302 1226.56 117.786 1227.02 118.274L1227.38 117.934C1227.84 118.423 1228.29 118.916 1228.73 119.412L1228.36 119.747C1228.81 120.241 1229.25 120.739 1229.69 121.24L1230.07 120.911C1230.51 121.414 1230.94 121.92 1231.37 122.429L1230.99 122.753C1231.23 123.028 1231.46 123.304 1231.69 123.581C1231.89 123.815 1232.08 124.049 1232.27 124.284L1232.66 123.966C1233.08 124.482 1233.51 125 1233.92 125.522L1233.53 125.834C1233.95 126.354 1234.36 126.877 1234.77 127.403L1235.16 127.097C1235.57 127.625 1235.98 128.156 1236.38 128.69L1235.98 128.991C1236.38 129.523 1236.77 130.057 1237.17 130.595L1237.57 130.301C1237.96 130.841 1238.35 131.383 1238.74 131.929L1238.33 132.218C1238.48 132.436 1238.64 132.655 1238.79 132.874C1239.02 133.201 1239.24 133.529 1239.47 133.858L1239.88 133.576C1240.26 134.127 1240.63 134.681 1241 135.238L1240.58 135.514C1240.95 136.068 1241.31 136.626 1241.67 137.186L1242.09 136.916C1242.45 137.479 1242.81 138.044 1243.16 138.612L1242.74 138.876C1243.09 139.441 1243.44 140.009 1243.78 140.58L1244.21 140.323C1244.55 140.896 1244.89 141.471 1245.22 142.049L1244.79 142.3C1245.12 142.875 1245.45 143.454 1245.78 144.035L1246.22 143.791C1246.54 144.374 1246.86 144.959 1247.18 145.548L1246.74 145.785C1247.06 146.37 1247.37 146.958 1247.68 147.548L1248.12 147.317C1248.43 147.909 1248.73 148.504 1249.03 149.102L1248.58 149.326C1248.88 149.921 1249.18 150.519 1249.47 151.119L1249.92 150.901C1250.21 151.502 1250.49 152.105 1250.77 152.711L1250.32 152.921C1250.6 153.525 1250.88 154.13 1251.15 154.738L1251.6 154.535C1251.88 155.145 1252.14 155.758 1252.41 156.373L1251.95 156.57C1252.21 157.18 1252.47 157.794 1252.72 158.409L1253.18 158.219C1253.43 158.837 1253.68 159.456 1253.93 160.078L1253.46 160.261C1253.71 160.881 1253.94 161.503 1254.18 162.127L1254.65 161.951C1254.88 162.576 1255.11 163.203 1255.34 163.832L1254.86 164C1255.09 164.626 1255.31 165.254 1255.52 165.884L1256 165.723C1256.21 166.355 1256.42 166.989 1256.63 167.626L1256.15 167.78C1256.36 168.413 1256.56 169.047 1256.75 169.684L1257.23 169.537C1257.43 170.175 1257.62 170.814 1257.8 171.455L1257.32 171.595C1257.51 172.234 1257.69 172.874 1257.87 173.517L1258.35 173.385C1258.53 174.029 1258.7 174.676 1258.86 175.324L1258.38 175.449C1258.55 176.092 1258.71 176.736 1258.86 177.382L1259.35 177.265C1259.5 177.914 1259.66 178.565 1259.8 179.217L1259.32 179.327C1259.46 179.977 1259.6 180.628 1259.74 181.281L1260.23 181.179C1260.37 181.831 1260.5 182.485 1260.62 183.14L1260.13 183.235C1260.19 183.523 1260.24 183.812 1260.3 184.1C1260.36 184.465 1260.43 184.831 1260.5 185.197L1260.99 185.11C1261.1 185.768 1261.22 186.427 1261.32 187.089L1260.83 187.168C1260.94 187.824 1261.04 188.482 1261.13 189.141L1261.63 189.068C1261.72 189.728 1261.81 190.388 1261.9 191.051L1261.4 191.115C1261.49 191.775 1261.57 192.436 1261.65 193.099L1262.14 193.042C1262.22 193.706 1262.29 194.371 1262.36 195.037L1261.86 195.087C1261.88 195.325 1261.91 195.564 1261.93 195.802C1261.97 196.224 1262.01 196.647 1262.04 197.07L1262.54 197.028C1262.6 197.693 1262.65 198.359 1262.69 199.027L1262.19 199.061C1262.24 199.726 1262.28 200.392 1262.31 201.059L1262.81 201.033C1262.85 201.697 1262.88 202.363 1262.9 203.029L1262.41 203.048C1262.43 203.711 1262.45 204.376 1262.47 205.042L1262.97 205.03C1262.98 205.699 1262.99 206.368 1263 207.039L1262.5 207.042C1262.5 207.214 1262.5 207.385 1262.5 207.557C1262.5 207.72 1262.5 207.882 1262.5 208.045V208.581H1263V209.652H1262.5V210.187C1262.5 210.522 1262.5 210.856 1262.5 211.19L1263 211.194C1262.99 211.864 1262.98 212.534 1262.97 213.202L1262.47 213.19C1262.45 213.856 1262.43 214.521 1262.41 215.184L1262.9 215.203C1262.88 215.87 1262.85 216.535 1262.81 217.199L1262.31 217.173C1262.3 217.491 1262.28 217.809 1262.26 218.126C1262.24 218.475 1262.22 218.823 1262.19 219.171L1262.69 219.206C1262.65 219.873 1262.6 220.539 1262.54 221.204L1262.04 221.162C1262.03 221.291 1262.02 221.419 1262.01 221.548C1261.96 222.081 1261.91 222.614 1261.86 223.145L1262.36 223.195C1262.29 223.861 1262.22 224.526 1262.14 225.19L1261.65 225.133C1261.59 225.604 1261.54 226.075 1261.48 226.544C1261.45 226.735 1261.43 226.926 1261.4 227.117L1261.9 227.181C1261.81 227.844 1261.72 228.505 1261.63 229.164L1261.13 229.092C1261.04 229.751 1260.94 230.408 1260.83 231.064L1261.32 231.144C1261.22 231.805 1261.1 232.464 1260.99 233.123L1260.5 233.035C1260.46 233.256 1260.42 233.476 1260.38 233.697C1260.3 234.131 1260.22 234.564 1260.13 234.997L1260.62 235.092C1260.5 235.747 1260.37 236.401 1260.23 237.053L1259.74 236.951C1259.67 237.266 1259.61 237.581 1259.54 237.896C1259.47 238.233 1259.39 238.569 1259.32 238.905L1259.8 239.015C1259.66 239.668 1259.5 240.318 1259.35 240.967L1258.86 240.85C1258.71 241.496 1258.55 242.141 1258.38 242.783L1258.86 242.908C1258.7 243.556 1258.53 244.203 1258.35 244.847L1257.87 244.715C1257.69 245.358 1257.51 245.999 1257.32 246.637L1257.8 246.777C1257.62 247.418 1257.43 248.057 1257.23 248.695L1256.75 248.548C1256.56 249.185 1256.36 249.82 1256.15 250.452L1256.63 250.607C1256.42 251.243 1256.21 251.877 1256 252.51L1255.52 252.348C1255.31 252.978 1255.09 253.606 1254.86 254.232L1255.34 254.4C1255.11 255.029 1254.88 255.656 1254.65 256.281L1254.18 256.105C1253.94 256.729 1253.71 257.351 1253.46 257.971L1253.93 258.154C1253.68 258.776 1253.43 259.396 1253.18 260.013L1252.72 259.823C1252.47 260.439 1252.21 261.052 1251.95 261.663L1252.41 261.859C1252.14 262.475 1251.88 263.087 1251.6 263.698L1251.15 263.494C1251.01 263.804 1250.87 264.112 1250.73 264.421C1250.59 264.718 1250.46 265.015 1250.32 265.311L1250.77 265.522C1250.49 266.127 1250.21 266.73 1249.92 267.331L1249.47 267.114C1249.18 267.714 1248.88 268.311 1248.58 268.906L1249.03 269.13C1248.73 269.728 1248.43 270.323 1248.12 270.915L1247.68 270.684C1247.55 270.927 1247.42 271.169 1247.29 271.41C1247.11 271.757 1246.93 272.102 1246.74 272.447L1247.18 272.685C1246.86 273.273 1246.54 273.858 1246.22 274.441L1245.78 274.197C1245.45 274.778 1245.12 275.357 1244.79 275.933L1245.22 276.183C1244.89 276.761 1244.55 277.337 1244.21 277.909L1243.78 277.652C1243.44 278.223 1243.09 278.791 1242.74 279.357L1243.16 279.62C1242.81 280.188 1242.45 280.754 1242.09 281.316L1241.67 281.046C1241.31 281.606 1240.95 282.164 1240.58 282.719L1241 282.995C1240.63 283.552 1240.26 284.106 1239.88 284.657L1239.47 284.375C1239.09 284.924 1238.71 285.471 1238.33 286.015L1238.74 286.303C1238.35 286.849 1237.96 287.392 1237.57 287.931L1237.17 287.637C1236.77 288.175 1236.38 288.71 1235.98 289.241L1236.38 289.542C1235.98 290.076 1235.57 290.607 1235.16 291.135L1234.77 290.829C1234.36 291.355 1233.95 291.878 1233.53 292.398L1233.92 292.71C1233.51 293.232 1233.08 293.75 1232.66 294.266L1232.27 293.948C1232.1 294.155 1231.93 294.361 1231.76 294.567C1231.51 294.872 1231.25 295.177 1230.99 295.48L1231.37 295.803C1230.94 296.313 1230.51 296.819 1230.07 297.322L1229.69 296.992C1229.25 297.493 1228.81 297.991 1228.36 298.485L1228.73 298.82C1228.29 299.316 1227.84 299.809 1227.38 300.298L1227.02 299.958C1226.56 300.446 1226.11 300.93 1225.65 301.411L1226.01 301.757C1225.55 302.24 1225.08 302.719 1224.61 303.195L1224.26 302.844C1223.79 303.318 1223.32 303.789 1222.84 304.256L1223.19 304.612C1222.72 305.081 1222.24 305.546 1221.76 306.008L1221.41 305.646C1221.22 305.827 1221.03 306.007 1220.84 306.187C1220.55 306.464 1220.25 306.741 1219.96 307.016L1220.3 307.382C1219.81 307.837 1219.32 308.288 1218.82 308.735L1218.49 308.364C1217.99 308.809 1217.49 309.251 1216.99 309.689L1217.32 310.065C1216.82 310.505 1216.31 310.941 1215.8 311.374L1215.48 310.993C1214.97 311.423 1214.46 311.85 1213.95 312.274L1214.27 312.66C1213.75 313.084 1213.23 313.505 1212.71 313.922L1212.4 313.531C1211.88 313.947 1211.36 314.359 1210.83 314.766L1211.14 315.161C1210.61 315.571 1210.08 315.976 1209.54 316.378L1209.24 315.978C1208.71 316.378 1208.17 316.774 1207.64 317.165L1207.93 317.569C1207.39 317.963 1206.85 318.352 1206.3 318.737L1206.01 318.329C1205.47 318.713 1204.92 319.093 1204.37 319.469L1204.66 319.881C1204.11 320.258 1203.55 320.631 1202.99 321L1202.72 320.583C1202.16 320.95 1201.61 321.314 1201.05 321.673L1201.32 322.094C1200.75 322.454 1200.19 322.811 1199.62 323.163L1199.36 322.738C1198.79 323.089 1198.22 323.435 1197.65 323.777L1197.91 324.206C1197.34 324.549 1196.76 324.889 1196.18 325.223L1195.93 324.791C1195.36 325.124 1194.78 325.454 1194.2 325.779L1194.44 326.215C1193.86 326.541 1193.27 326.863 1192.68 327.181L1192.45 326.741C1191.86 327.057 1191.27 327.368 1190.68 327.675L1190.92 328.119C1190.32 328.427 1189.73 328.731 1189.13 329.031L1188.91 328.584C1188.31 328.883 1187.71 329.177 1187.11 329.466L1187.33 329.917C1186.73 330.207 1186.13 330.492 1185.52 330.774L1185.31 330.32C1184.71 330.6 1184.1 330.876 1183.49 331.147L1183.7 331.604C1183.09 331.876 1182.47 332.144 1181.86 332.407L1181.66 331.948C1181.05 332.209 1180.44 332.466 1179.82 332.719L1180.01 333.181C1179.4 333.434 1178.78 333.683 1178.15 333.927L1177.97 333.462C1177.75 333.55 1177.52 333.638 1177.3 333.725C1176.9 333.878 1176.5 334.029 1176.11 334.178L1176.28 334.646C1175.66 334.881 1175.03 335.11 1174.4 335.335L1174.23 334.865C1173.97 334.957 1173.72 335.049 1173.46 335.14C1173.09 335.269 1172.72 335.397 1172.35 335.523L1172.51 335.996C1171.88 336.211 1171.24 336.422 1170.61 336.628L1170.45 336.153C1169.82 336.358 1169.18 336.558 1168.55 336.753L1168.7 337.231C1168.06 337.427 1167.42 337.618 1166.78 337.804L1166.64 337.324C1166.33 337.412 1166.03 337.5 1165.73 337.586C1165.39 337.68 1165.05 337.774 1164.72 337.866L1164.85 338.349C1164.2 338.525 1163.56 338.697 1162.91 338.864L1162.78 338.38C1162.14 338.545 1161.5 338.706 1160.85 338.862L1160.97 339.348C1160.32 339.504 1159.67 339.656 1159.02 339.803L1158.91 339.315C1158.26 339.461 1157.6 339.603 1156.95 339.74L1157.05 340.229C1156.4 340.365 1155.75 340.497 1155.09 340.623L1155 340.132C1154.34 340.258 1153.69 340.379 1153.04 340.495L1153.12 340.988C1152.46 341.104 1151.8 341.216 1151.14 341.323L1151.06 340.829C1150.41 340.935 1149.75 341.036 1149.09 341.132L1149.16 341.627C1148.5 341.723 1147.84 341.814 1147.18 341.901L1147.12 341.405C1146.46 341.491 1145.8 341.572 1145.13 341.648L1145.19 342.144C1144.53 342.22 1143.86 342.292 1143.19 342.358L1143.15 341.86C1142.49 341.926 1141.82 341.986 1141.16 342.042L1141.2 342.54C1140.54 342.596 1139.87 342.646 1139.21 342.692L1139.17 342.193C1138.51 342.239 1137.84 342.279 1137.17 342.315L1137.2 342.814C1136.54 342.849 1135.87 342.88 1135.2 342.905L1135.18 342.405C1134.52 342.431 1133.86 342.451 1133.19 342.466L1133.2 342.966C1132.53 342.981 1131.86 342.991 1131.19 342.996L1131.19 342.496C1130.86 342.499 1130.52 342.5 1130.19 342.5H1129.19V343H1127.18V342.5H1125.18V343H1123.18V342.5H1121.18V343H1119.18V342.5H1117.18V343H1115.18V342.5H1113.18V343H1111.18V342.5H1109.17V343H1107.17V342.5H1105.17V343H1103.17V342.5H1101.17V343H1099.17V342.5H1097.17V343H1095.17V342.5H1093.17V343H1091.17V342.5H1089.16V343H1087.16V342.5H1085.16V343H1083.16V342.5H1081.16V343H1079.16V342.5H1077.16V343H1075.16V342.5H1073.16V343H1071.16V342.5H1069.15V343H1067.15V342.5H1065.15V343H1063.15V342.5H1061.15V343H1059.15V342.5H1057.15V343H1055.15V342.5H1053.15V343H1051.14V342.5H1049.14V343H1047.14V342.5H1045.14V343H1043.14V342.5H1041.14V343H1039.14V342.5H1037.14V343H1035.14V342.5H1033.14V343H1031.13V342.5H1029.13V343H1027.13V342.5H1025.13V343H1023.13V342.5H1021.13V343H1019.13V342.5H1017.13V343H1015.13V342.5H1013.13V343H1011.12V342.5H1009.12V343H1007.12V342.5H1005.12V343H1003.12V342.5H1001.12V343H999.118V342.5H997.117V343H995.116V342.5H993.115V343H991.114V342.5H989.113V343H987.112V342.5H985.111V343H983.11V342.5H981.109V343H979.107V342.5H977.106V343H975.105V342.5H973.104V343H971.103V342.5H969.102V343H967.101V342.5H965.1V343H963.099V342.5H961.098V343H959.097V342.5H957.096V343H955.095V342.5H953.094V343H951.093V342.5H949.092V343H947.091V342.5H945.09V343H943.089V342.5H941.088V343H939.087V342.5H937.086V343H935.085V342.5H933.084V343H931.083V342.5H929.082V343H927.081V342.5H925.079V343H923.078V342.5H921.077V343H919.076V342.5H917.075V343H915.074V342.5H913.073V343H911.072V342.5H909.071V343H907.07V342.5H905.069V343H903.068V342.5H901.067V343H899.066V342.5H897.065V343H895.064V342.5H893.063V343H891.062V342.5H889.061V343H887.06V342.5H885.059V343H883.058V342.5H881.057V343H879.056V342.5H877.055V343H875.054V342.5H873.052V343H871.051V342.5H869.05V343H867.049V342.5H865.048V343H863.047V342.5H861.046V343H859.045V342.5H857.044V343H855.043V342.5H853.042V343H851.041V342.5H849.04V343H847.039V342.5H845.038V343H843.037V342.5H841.036V343H839.035V342.5H837.034V343H835.033V342.5H833.032V343H831.031V342.5H829.03V343H827.029V342.5H825.028V343H823.027V342.5H821.026V343H819.024V342.5H817.023V343H815.022V342.5H813.021V343H811.02V342.5H809.019V343H807.018V342.5H805.017V343H803.016V342.5H801.015V343H799.014V342.5H797.013V343H795.012V342.5H793.011V343H791.01V342.5H789.009V343H787.008V342.5H785.007V343H783.006V342.5H781.005V343H779.004V342.5H777.003V343H775.002V342.5H773.001V343H771V342.5H768.999V343H766.997V342.5H764.996V343H762.995V342.5H760.994V343H758.993V342.5H756.992V343H754.991V342.5H752.99V343H750.989V342.5H748.988V343H746.987V342.5H744.986V343H742.985V342.5H740.984V343H738.983V342.5H736.982V343H734.981V342.5H732.98V343H730.979V342.5H728.978V343H726.977V342.5H724.976V343H722.975V342.5H720.974V343H718.973V342.5H716.972V343H714.971V342.5H712.969V343H710.968V342.5H708.967V343H706.966V342.5H704.965V343H702.964V342.5H700.963V343H698.962V342.5H696.961V343H694.96V342.5H692.959V343H690.958V342.5H688.957V343H686.956V342.5H684.955V343H682.954V342.5H680.953V343H678.952V342.5H676.951V343H674.95V342.5H672.949V343H670.948V342.5H668.947V343H666.946V342.5H664.945V343H662.944V342.5H660.943V343H658.941V342.5H656.94V343H654.939V342.5H652.938V343H650.937V342.5H648.936V343H646.935V342.5H644.934V343H642.933V342.5H640.932V343H638.931V342.5H636.93V343H634.929V342.5H632.928V343H630.927V342.5H628.926V343H626.925V342.5H624.924V343H622.923V342.5H620.922V343H618.921V342.5H616.92V343H614.919V342.5H612.918V343H610.917V342.5H608.916V343H606.914V342.5H604.913V343H602.912V342.5H600.911V343H598.91V342.5H596.909V343H594.908V342.5H592.907V343H590.906V342.5H588.905V343H586.904V342.5H584.903V343H582.902V342.5H580.901V343H578.9V342.5H576.899V343H574.898V342.5H572.897V343H570.896V342.5H568.895V343H566.894V342.5H564.893V343H562.892V342.5H560.891V343H558.889V342.5H556.888V343H554.887V342.5H552.886V343H550.885V342.5H548.884V343H546.883V342.5H544.882V343H542.881V342.5H540.88V343H538.879V342.5H536.878V343H534.877V342.5H532.876V343H530.875V342.5H528.874V343H526.873V342.5H524.872V343H522.871V342.5H520.87V343H518.869V342.5H516.868V343H514.866V342.5H512.865V343H510.864V342.5H508.863V343H506.862V342.5H504.861V343H502.86V342.5H500.859V343H498.858V342.5H496.857V343H494.856V342.5H492.855V343H490.854V342.5H488.853V343H486.852V342.5H484.851V343H482.85V342.5H480.849V343H478.848V342.5H476.847V343H474.846V342.5H472.845V343H470.844V342.5H468.843V343H466.841V342.5H464.84V343H462.839V342.5H461.839C461.506 342.5 461.173 342.499 460.84 342.498L460.838 342.998C460.171 342.996 459.504 342.991 458.838 342.984L458.843 342.484C458.522 342.48 458.201 342.476 457.88 342.471C457.537 342.466 457.194 342.461 456.851 342.455L456.841 342.954C456.176 342.942 455.512 342.928 454.848 342.911L454.861 342.411C454.199 342.394 453.537 342.375 452.876 342.353L452.859 342.853C452.197 342.831 451.535 342.807 450.874 342.78L450.894 342.281C450.234 342.254 449.574 342.225 448.915 342.194L448.892 342.694C448.228 342.662 447.565 342.628 446.902 342.592L446.929 342.093C446.265 342.056 445.601 342.017 444.937 341.976L444.906 342.475C444.242 342.434 443.578 342.39 442.914 342.344L442.949 341.845C442.287 341.799 441.626 341.751 440.965 341.7L440.927 342.198C440.265 342.147 439.604 342.094 438.943 342.038L438.985 341.54C438.326 341.484 437.667 341.427 437.009 341.366L436.963 341.864C436.304 341.803 435.646 341.741 434.988 341.675L435.037 341.178C434.377 341.112 433.717 341.044 433.058 340.974L433.005 341.471C432.342 341.401 431.68 341.327 431.019 341.252L431.075 340.755C430.415 340.68 429.756 340.602 429.097 340.522L429.037 341.018C428.377 340.938 427.718 340.855 427.06 340.77L427.124 340.274C426.88 340.243 426.636 340.211 426.392 340.178C425.979 340.124 425.567 340.068 425.155 340.012L425.087 340.508C424.431 340.418 423.775 340.326 423.119 340.231L423.191 339.736C422.537 339.642 421.884 339.545 421.231 339.446L421.156 339.94C420.498 339.84 419.84 339.738 419.184 339.633L419.262 339.139C418.606 339.034 417.95 338.927 417.295 338.818L417.213 339.311C416.557 339.201 415.901 339.089 415.247 338.975L415.333 338.482C415.128 338.446 414.924 338.41 414.719 338.374C414.271 338.295 413.823 338.214 413.376 338.132L413.286 338.624C412.633 338.505 411.981 338.384 411.33 338.26L411.423 337.769C410.773 337.645 410.124 337.519 409.476 337.391L409.379 337.881C408.729 337.752 408.08 337.621 407.432 337.488L407.533 336.998C406.882 336.864 406.231 336.728 405.581 336.589L405.477 337.078C404.826 336.939 404.176 336.798 403.527 336.654L403.635 336.166C402.987 336.022 402.34 335.877 401.694 335.729L401.582 336.216C400.934 336.068 400.288 335.917 399.642 335.764L399.758 335.277C399.113 335.125 398.47 334.969 397.827 334.812L397.708 335.298C397.065 335.14 396.422 334.98 395.78 334.818L395.903 334.333C395.7 334.282 395.498 334.23 395.296 334.179C394.857 334.066 394.418 333.953 393.979 333.839L393.853 334.323C393.208 334.154 392.565 333.984 391.923 333.811L392.052 333.328C391.411 333.156 390.771 332.981 390.132 332.804L389.998 333.286C389.358 333.109 388.718 332.929 388.08 332.747L388.217 332.266C387.579 332.085 386.943 331.901 386.308 331.714L386.167 332.194C385.53 332.008 384.895 331.819 384.26 331.628L384.405 331.149C383.771 330.958 383.139 330.765 382.507 330.57L382.36 331.047C381.725 330.851 381.09 330.652 380.457 330.451L380.609 329.974C380.325 329.884 380.041 329.794 379.758 329.703C379.409 329.591 379.061 329.478 378.713 329.365L378.558 329.84C377.926 329.634 377.295 329.426 376.665 329.215L376.823 328.741C376.194 328.531 375.566 328.318 374.94 328.104L374.778 328.577C374.15 328.362 373.523 328.144 372.897 327.925L373.062 327.453C372.438 327.234 371.814 327.012 371.192 326.789L371.023 327.259C370.399 327.035 369.776 326.809 369.154 326.58L369.327 326.111C368.703 325.881 368.081 325.65 367.46 325.416L367.284 325.884C366.661 325.65 366.04 325.413 365.42 325.175L365.599 324.708C364.98 324.47 364.362 324.229 363.745 323.987L363.562 324.452C362.944 324.209 362.328 323.964 361.712 323.716L361.898 323.252C361.284 323.005 360.67 322.756 360.058 322.504L359.868 322.967C359.255 322.715 358.642 322.461 358.031 322.204L358.225 321.743C357.614 321.487 357.004 321.228 356.395 320.967L356.198 321.427C355.586 321.165 354.976 320.901 354.367 320.635L354.567 320.177C353.96 319.911 353.353 319.643 352.747 319.373L352.544 319.829C351.937 319.559 351.331 319.286 350.727 319.011L350.934 318.556C350.331 318.281 349.729 318.005 349.128 317.726L348.918 318.179C348.316 317.9 347.715 317.619 347.116 317.335L347.33 316.883C346.732 316.6 346.135 316.315 345.539 316.027L345.321 316.478C344.723 316.189 344.125 315.898 343.529 315.605L343.749 315.156C343.154 314.863 342.559 314.568 341.967 314.271L341.743 314.719C341.149 314.421 340.556 314.121 339.964 313.819L340.191 313.374C339.601 313.073 339.012 312.769 338.424 312.464L338.193 312.908C337.604 312.602 337.017 312.293 336.43 311.983L336.664 311.541C336.079 311.232 335.495 310.92 334.912 310.606L334.675 311.046C334.09 310.731 333.507 310.414 332.925 310.095L333.166 309.657C332.838 309.477 332.511 309.297 332.184 309.116C331.93 308.976 331.677 308.835 331.424 308.694L331.181 309.13C330.6 308.807 330.021 308.481 329.444 308.153L329.69 307.718C329.114 307.391 328.539 307.061 327.965 306.73L327.715 307.163C327.14 306.831 326.566 306.497 325.994 306.16L326.247 305.729C325.676 305.394 325.106 305.056 324.538 304.716L324.281 305.146C323.712 304.805 323.144 304.463 322.577 304.119L322.837 303.691C322.27 303.347 321.704 303 321.14 302.652L320.878 303.077C320.312 302.728 319.748 302.377 319.186 302.024L319.452 301.6C318.89 301.247 318.33 300.893 317.772 300.536L317.502 300.957C316.943 300.6 316.384 300.241 315.828 299.879L316.1 299.46C315.544 299.099 314.99 298.736 314.437 298.372L314.161 298.789C313.607 298.424 313.055 298.056 312.504 297.687L312.782 297.272C312.232 296.903 311.683 296.532 311.135 296.159L310.854 296.572C310.304 296.198 309.757 295.822 309.21 295.444L309.495 295.033C308.95 294.656 308.406 294.277 307.863 293.896L307.576 294.305C307.032 293.923 306.491 293.539 305.95 293.153L306.241 292.746C305.701 292.361 305.163 291.974 304.627 291.585L304.334 291.99C303.796 291.6 303.26 291.209 302.726 290.815L303.022 290.413C302.489 290.02 301.957 289.625 301.427 289.228L301.127 289.629C300.595 289.231 300.065 288.831 299.536 288.43L299.839 288.031C299.311 287.63 298.784 287.228 298.259 286.823L297.954 287.219C297.428 286.813 296.903 286.406 296.381 285.996L296.689 285.603C296.167 285.194 295.647 284.784 295.128 284.371L294.817 284.763C294.297 284.349 293.779 283.934 293.262 283.518L293.576 283.128C293.061 282.712 292.547 282.294 292.034 281.875L291.717 282.261C291.204 281.841 290.692 281.418 290.182 280.994L290.501 280.609C289.992 280.185 289.483 279.759 288.977 279.332L288.654 279.714C288.147 279.286 287.641 278.855 287.137 278.423L287.462 278.044C286.959 277.612 286.457 277.179 285.957 276.744L285.629 277.122C285.128 276.686 284.629 276.248 284.131 275.809L284.462 275.434C283.965 274.996 283.47 274.555 282.976 274.113L282.643 274.485C282.148 274.043 281.655 273.598 281.164 273.151L281.501 272.781C281.01 272.335 280.521 271.888 280.034 271.438L279.695 271.806C279.207 271.355 278.721 270.903 278.236 270.449L278.578 270.084C278.094 269.631 277.612 269.177 277.132 268.72L276.787 269.082C276.306 268.625 275.826 268.166 275.349 267.705L275.696 267.345C275.219 266.885 274.743 266.423 274.27 265.96L273.92 266.317C273.445 265.852 272.973 265.386 272.502 264.919L272.854 264.564C272.384 264.097 271.915 263.628 271.449 263.158L271.094 263.51C270.626 263.038 270.16 262.565 269.696 262.091L270.054 261.741C269.59 261.267 269.129 260.791 268.669 260.314L268.309 260.661C267.848 260.183 267.389 259.703 266.932 259.221L267.295 258.877C266.839 258.397 266.384 257.914 265.931 257.43L265.566 257.772C265.113 257.287 264.661 256.8 264.211 256.312L264.578 255.973C264.129 255.486 263.682 254.997 263.236 254.506L262.866 254.842C262.42 254.351 261.975 253.858 261.533 253.363L261.905 253.03C261.463 252.536 261.023 252.04 260.585 251.543L260.21 251.874C259.771 251.376 259.334 250.876 258.898 250.375L259.276 250.047C258.841 249.547 258.408 249.045 257.977 248.542L257.597 248.867C257.166 248.362 256.736 247.856 256.308 247.349L256.69 247.026C256.263 246.519 255.837 246.011 255.413 245.501L255.029 245.821C254.605 245.31 254.182 244.798 253.762 244.284L254.149 243.967C253.729 243.454 253.311 242.94 252.895 242.424L252.506 242.738C252.09 242.221 251.675 241.703 251.262 241.183L251.654 240.872C251.242 240.353 250.831 239.833 250.423 239.311L250.029 239.619C249.62 239.096 249.213 238.571 248.808 238.045L249.204 237.74C248.799 237.215 248.397 236.688 247.996 236.16L247.598 236.462C247.196 235.933 246.797 235.403 246.399 234.87L246.799 234.571C246.403 234.041 246.008 233.508 245.616 232.975L245.213 233.271C244.82 232.737 244.428 232.2 244.039 231.663L244.444 231.37C244.055 230.833 243.668 230.295 243.284 229.755L242.877 230.046C242.491 229.505 242.107 228.963 241.726 228.42L242.135 228.133C241.754 227.59 241.375 227.046 240.998 226.501L240.587 226.785C240.209 226.239 239.833 225.691 239.46 225.142L239.873 224.86C239.5 224.312 239.129 223.763 238.761 223.212L238.345 223.491C237.976 222.939 237.609 222.387 237.244 221.833L237.661 221.557C237.297 221.004 236.934 220.45 236.574 219.894L236.154 220.166C235.793 219.609 235.434 219.051 235.077 218.491L235.498 218.222C235.142 217.663 234.787 217.103 234.435 216.542L234.011 216.807C233.658 216.245 233.307 215.681 232.958 215.116L233.383 214.853C233.035 214.289 232.689 213.723 232.344 213.156L231.917 213.416C231.573 212.849 231.23 212.28 230.89 211.711L231.319 211.454C230.98 210.886 230.642 210.316 230.307 209.745L229.876 209.998C229.54 209.426 229.206 208.852 228.874 208.277L229.307 208.027C228.975 207.453 228.646 206.878 228.319 206.301L227.884 206.548C227.556 205.971 227.231 205.392 226.907 204.811L227.344 204.568C227.021 203.989 226.7 203.408 226.381 202.826L225.942 203.067C225.623 202.485 225.306 201.901 224.991 201.316L225.432 201.079C225.118 200.496 224.806 199.912 224.496 199.327L224.054 199.561C223.744 198.974 223.436 198.387 223.13 197.798L223.574 197.567C223.268 196.979 222.965 196.39 222.664 195.8L222.219 196.027C221.917 195.435 221.617 194.843 221.32 194.249L221.767 194.025C221.47 193.432 221.175 192.838 220.883 192.242L220.434 192.463C220.141 191.867 219.85 191.269 219.561 190.67L220.011 190.453C219.724 189.857 219.438 189.259 219.155 188.661L218.703 188.875C218.419 188.275 218.138 187.675 217.858 187.073L218.312 186.862C218.033 186.262 217.756 185.66 217.482 185.057L217.027 185.264C216.752 184.66 216.479 184.054 216.208 183.448L216.665 183.244C216.395 182.639 216.127 182.032 215.861 181.424L215.403 181.625C215.137 181.016 214.873 180.406 214.611 179.795L215.07 179.598C214.809 178.989 214.55 178.378 214.294 177.766L213.833 177.96C213.576 177.349 213.322 176.737 213.07 176.123L213.532 175.933C213.281 175.321 213.031 174.708 212.784 174.093L212.32 174.28C212.072 173.664 211.827 173.047 211.584 172.43L212.049 172.246C211.806 171.63 211.566 171.012 211.327 170.393L210.861 170.573C210.622 169.953 210.385 169.332 210.151 168.71L210.619 168.533C210.385 167.912 210.154 167.29 209.924 166.667L209.455 166.84C209.226 166.218 208.999 165.594 208.775 164.97L209.245 164.801C209.021 164.178 208.8 163.555 208.58 162.93L208.109 163.096C207.889 162.47 207.671 161.843 207.456 161.215L207.929 161.053C207.714 160.427 207.502 159.799 207.291 159.17L206.817 159.329C206.606 158.699 206.398 158.068 206.192 157.436L206.667 157.281C206.461 156.651 206.258 156.019 206.057 155.386L205.58 155.538C205.379 154.904 205.179 154.27 204.983 153.634L205.46 153.486C205.265 152.855 205.071 152.222 204.88 151.589L204.401 151.734C204.21 151.099 204.021 150.464 203.834 149.827L204.314 149.686C204.127 149.051 203.943 148.415 203.761 147.778L203.281 147.915C203.098 147.277 202.918 146.637 202.741 145.997L203.223 145.863C203.045 145.224 202.87 144.584 202.698 143.944L202.215 144.074C202.042 143.432 201.871 142.788 201.703 142.144L202.187 142.018C202.019 141.377 201.854 140.735 201.691 140.093L201.207 140.215C201.044 139.574 200.884 138.931 200.726 138.287L201.211 138.168C201.053 137.525 200.898 136.882 200.745 136.238L200.259 136.354C200.105 135.708 199.954 135.062 199.805 134.415L200.293 134.303C200.144 133.657 199.998 133.01 199.855 132.362L199.367 132.47C199.223 131.821 199.081 131.172 198.942 130.521L199.431 130.416C199.292 129.767 199.155 129.117 199.021 128.466L198.531 128.567C198.397 127.918 198.266 127.268 198.137 126.618L198.627 126.521C198.498 125.872 198.372 125.223 198.248 124.573L197.757 124.667C197.633 124.016 197.511 123.364 197.391 122.711L197.883 122.621C197.764 121.97 197.647 121.318 197.532 120.665L197.04 120.751C196.925 120.097 196.813 119.442 196.703 118.786L197.196 118.703C197.086 118.048 196.979 117.393 196.874 116.737L196.38 116.816C196.275 116.159 196.172 115.501 196.072 114.842L196.566 114.767C196.467 114.114 196.37 113.461 196.275 112.807L195.78 112.879C195.685 112.223 195.593 111.568 195.502 110.911L195.998 110.843C195.908 110.187 195.82 109.531 195.735 108.874L195.239 108.939C195.154 108.28 195.071 107.621 194.99 106.962L195.487 106.901C195.406 106.243 195.328 105.584 195.252 104.924L194.756 104.981C194.68 104.32 194.607 103.658 194.536 102.996L195.033 102.942C194.962 102.283 194.894 101.622 194.828 100.962L194.331 101.011C194.265 100.353 194.202 99.6947 194.141 99.0355L194.639 98.9896C194.578 98.3317 194.52 97.673 194.464 97.0137L193.966 97.0559C193.91 96.3954 193.856 95.7343 193.805 95.0724L194.304 95.0339C194.253 94.3732 194.204 93.712 194.158 93.0501L193.659 93.085C193.613 92.4218 193.569 91.7581 193.527 91.0936L194.026 91.0625C193.985 90.3993 193.946 89.7355 193.909 89.0711L193.41 89.0986C193.374 88.4357 193.34 87.7723 193.308 87.1082L193.807 87.0844C193.776 86.4255 193.747 85.7659 193.72 85.1058L193.221 85.1259C193.194 84.4646 193.17 83.8027 193.148 83.1401L193.648 83.1236C193.626 82.4623 193.606 81.8004 193.589 81.1379L193.09 81.1508C193.073 80.4871 193.058 79.8228 193.046 79.158L193.546 79.1488C193.534 78.4852 193.524 77.821 193.516 77.1562L193.016 77.1618C193.009 76.4958 193.004 75.8293 193.002 75.1622L193.502 75.1604C193.501 74.8275 193.5 74.4944 193.5 74.1612V73.1592H193V71.1582H193.5V69.1572H193V67.1561H193.5V65.1551H193V63.1541H193.5V61.153H193V59.152H193.5V57.1509H193V55.1499H193.5V53.1489H193V51.1478H193.5V49.1468H193V47.1458H193.5V45.1447H193V43.1437H193.5V41.1426H193V39.1416H193.5V37.1406H193V35.1395H193.5V33.1385H193V31.1375H193.5V29.1364H193V27.1354H193.5V25.1343H193V23.1333H193.5V21.1323H193V19.1312H193.5V17.1302H193V15.1292H193.5V13.1281H193V11.1271H193.5V9.12604H193V7.125H193.5V5.12396H193V3.12292H193.5V1.12189H193V-0.87915H193.5V-2.88019H193V-4.88123H193.5V-6.88226H193V-8.8833H193.5V-10.8843H193V-12.8854H193.5V-14.8864H193V-16.8875H193.5V-18.8885H193V-20.8895H193.5V-22.8906H193V-24.8916H193.5V-26.8926H193V-28.8937H193.5V-30.8947H193V-32.8958H193.5V-34.8968H193V-36.8978H193.5V-38.8989H193V-40.8999H193.5V-42.9009H193V-44.902H193.5V-46.903H193V-48.9041H193.5V-50.9051H193V-52.9061H193.5V-54.9072H193V-56.9082H193.5V-58.9092H193V-60.9103H193.5V-62.9113H193V-64.9124H193.5V-66.9134H193V-68.9144H193.5V-70.9155H193V-72.9165H193.5V-74.9175H193V-76.9186H193.5V-78.9196H193V-80.9207H193.5V-82.9217H193V-84.9227H193.5V-86.9238H193V-88.9248H193.5V-90.9258H193V-92.9269H193.5V-94.9279H193V-96.929H193.5V-98.93H193V-100.931H193.5V-102.932H193V-104.933H193.5V-106.934H193V-108.935H193.5V-110.936H193V-112.937H193.5V-114.938H193V-116.939H193.5V-118.94H193V-120.941H193.5V-122.942H193V-124.943H193.5V-126.945H193V-128.946H193.5V-130.947H193V-132.948H193.5V-134.949H193V-136.95H193.5V-138.951H193V-140.952H193.5V-142.953H193V-144.954H193.5V-146.955H193V-148.956H193.5V-150.957H193V-152.958H193.5V-154.959H193V-156.96H193.5V-158.961H193V-160.962H193.5V-162.963H193V-164.964H193.5V-166.965H193V-168.966H193.5V-170.967H193V-172.968H193.5V-174.969H193V-176.97H193.5V-178.971H193V-180.973H193.5V-182.974H193V-184.975H193.5V-186.976H193V-188.977H193.5V-190.978H193V-192.979H193.5V-194.98H193V-196.981H193.5V-198.982H193V-200.983H193.5V-202.984H193V-204.985H193.5V-206.986H193V-208.987H193.5V-210.988H193V-212.989H193.5V-214.99H193V-216.991H193.5V-218.992H193V-220.993H193.5V-222.994H193V-224.995H193.5V-226.996H193V-228.997H193.5V-230.998H193V-233H193.5V-235.001H193V-237.002H193.5V-239.003H193V-241.004H193.5V-243.005H193V-245.006H193.5V-247.007H193V-249.008H193.5V-251.009H193V-253.01H193.5V-255.011H193V-257.012H193.5V-259.013H193V-261.014H193.5V-263.015H193V-265.016H193.5V-267.017H193V-269.018H193.5V-271.019H193V-273.02H193.5V-275.021H193V-277.022H193.5V-279.023H193V-281.024H193.5V-283.025H193V-285.026H193.5V-287.028H193V-289.029H193.5V-291.03H193V-293.031H193.5V-295.032H193V-297.033H193.5V-299.034H193V-301.035H193.5V-303.036H193V-305.037H193.5V-307.038H193V-309.039H193.5V-311.04H193V-313.041H193.5V-315.042H193V-317.043H193.5V-319.044H193V-321.045H193.5V-323.046H193V-325.047H193.5V-327.048H193V-329.049H193.5V-331.05H193V-333.051H193.5V-335.052H193V-337.053H193.5V-339.055H193V-341.056H193.5V-343.057H193V-345.058H193.5V-347.059H193V-349.06H193.5V-351.061H193V-353.062H193.5V-355.063H193V-357.064H193.5V-359.065H193V-361.066H193.5V-363.067H193V-365.068H193.5V-367.069H193V-369.07H193.5V-371.071H193V-373.072H193.5V-375.073H193V-377.074H193.5V-379.075H193V-381.076H193.5V-383.077H193V-385.078H193.5V-387.079H193V-389.08H193.5V-391.081H193V-393.083H193.5V-395.084H193V-397.085H193.5V-399.086H193V-401.087H193.5V-403.088H193V-405.089H193.5V-407.09H193V-409.091H193.5V-411.092H193V-413.093H193.5V-415.094H193V-417.095H193.5V-419.096H193V-421.097H193.5V-423.098H193V-425.099H193.5V-427.1H193V-429.101H193.5V-431.102H193V-433.103H193.5V-435.104H193V-437.105H193.5V-439.106H193V-441.107H193.5V-443.108H193V-445.109H193.5V-447.111H193V-449.112H193.5V-451.113H193V-453.114H193.5V-455.115H193V-457.116H193.5V-459.117H193V-461.118H193.5V-463.119H193V-465.12H193.5V-467.121H193V-469.122H193.5V-471.123H193V-473.124H193.5V-475.125H193V-477.126H193.5V-479.127H193V-481.128H193.5V-483.129H193V-485.13H193.5V-487.131H193V-489.132H193.5V-491.133H193V-493.135H193.5V-495.136H193V-497.137H193.5V-499.138H193V-501.139H193.5V-503.14H193V-505.141H193.5V-507.142H193V-509.143H193.5V-511.144H193V-513.145H193.5V-515.146H193V-517.147H193.5V-519.148H193V-521.149H193.5V-523.15H193V-525.151H193.5V-527.152H193V-529.153H193.5V-531.154H193V-533.155H193.5V-535.156H193V-537.157H193.5V-539.159H193V-541.16H193.5V-543.161H193V-545.162H193.5V-547.163H193V-549.164H193.5V-551.165H193V-553.166H193.5V-555.167H193V-557.168H193.5V-559.169H193V-561.17H193.5V-563.171H193V-565.172H193.5V-567.173H193V-569.174H193.5V-571.175H193V-573.176H193.5V-575.177H193V-577.178H193.5V-579.179H193V-581.18H193.5V-583.181H193V-585.182H193.5V-587.184H193V-589.185H193.5V-591.186H193V-593.187H193.5V-594.187C193.5 -594.522 193.501 -594.856 193.504 -595.19L193.004 -595.194C193.009 -595.864 193.019 -596.533 193.034 -597.202L193.534 -597.19C193.549 -597.856 193.57 -598.521 193.595 -599.184L193.095 -599.203C193.12 -599.869 193.151 -600.535 193.186 -601.199L193.685 -601.173C193.721 -601.84 193.761 -602.506 193.807 -603.171L193.308 -603.205C193.354 -603.873 193.404 -604.539 193.46 -605.204L193.958 -605.162C194.014 -605.825 194.074 -606.486 194.14 -607.145L193.642 -607.195C193.708 -607.861 193.779 -608.526 193.856 -609.19L194.352 -609.133C194.428 -609.796 194.509 -610.457 194.595 -611.117L194.099 -611.181C194.186 -611.844 194.277 -612.504 194.373 -613.164L194.868 -613.092C194.964 -613.75 195.065 -614.408 195.171 -615.064L194.677 -615.143C194.784 -615.805 194.896 -616.464 195.012 -617.122L195.504 -617.035C195.621 -617.691 195.742 -618.345 195.868 -618.997L195.377 -619.092C195.503 -619.747 195.635 -620.401 195.771 -621.053L196.261 -620.951C196.397 -621.604 196.539 -622.256 196.685 -622.905L196.197 -623.015C196.344 -623.667 196.496 -624.318 196.652 -624.967L197.138 -624.85C197.294 -625.496 197.455 -626.14 197.62 -626.783L197.136 -626.908C197.303 -627.556 197.475 -628.203 197.651 -628.847L198.134 -628.715C198.31 -629.358 198.49 -629.998 198.676 -630.637L198.196 -630.777C198.382 -631.418 198.573 -632.057 198.769 -632.695L199.247 -632.548C199.442 -633.185 199.642 -633.82 199.847 -634.452L199.372 -634.606C199.578 -635.243 199.788 -635.877 200.004 -636.51L200.477 -636.348C200.692 -636.978 200.911 -637.606 201.135 -638.232L200.664 -638.4C200.89 -639.029 201.119 -639.656 201.354 -640.281L201.822 -640.105C202.056 -640.729 202.295 -641.351 202.538 -641.971L202.073 -642.154C202.317 -642.776 202.565 -643.395 202.819 -644.013L203.281 -643.823C203.534 -644.439 203.791 -645.052 204.052 -645.663L203.593 -645.859C203.856 -646.474 204.124 -647.087 204.396 -647.698L204.853 -647.494C205.124 -648.102 205.4 -648.708 205.68 -649.311L205.226 -649.521C205.508 -650.127 205.793 -650.73 206.083 -651.331L206.534 -651.114C206.823 -651.714 207.117 -652.311 207.416 -652.906L206.969 -653.13C207.269 -653.728 207.573 -654.323 207.881 -654.915L208.325 -654.684C208.632 -655.274 208.943 -655.862 209.259 -656.447L208.819 -656.685C209.137 -657.273 209.459 -657.858 209.785 -658.441L210.221 -658.197C210.546 -658.778 210.876 -659.357 211.209 -659.933L210.777 -660.183C211.111 -660.761 211.451 -661.337 211.794 -661.909L212.223 -661.652C212.565 -662.223 212.911 -662.791 213.262 -663.356L212.837 -663.62C213.189 -664.188 213.546 -664.753 213.906 -665.316L214.327 -665.046C214.686 -665.606 215.049 -666.164 215.417 -666.719L215 -666.995C215.369 -667.552 215.742 -668.106 216.119 -668.657L216.531 -668.374C216.907 -668.924 217.287 -669.471 217.671 -670.015L217.263 -670.303C217.648 -670.849 218.037 -671.392 218.43 -671.931L218.835 -671.637C219.226 -672.175 219.622 -672.71 220.022 -673.241L219.622 -673.542C220.024 -674.076 220.429 -674.607 220.838 -675.135L221.234 -674.829C221.641 -675.355 222.053 -675.878 222.469 -676.398L222.078 -676.71C222.495 -677.232 222.916 -677.75 223.34 -678.266L223.726 -677.948C224.15 -678.462 224.577 -678.972 225.007 -679.48L224.626 -679.803C225.059 -680.313 225.495 -680.819 225.935 -681.321L226.311 -680.992C226.749 -681.493 227.191 -681.991 227.636 -682.485L227.265 -682.82C227.712 -683.316 228.163 -683.809 228.618 -684.298L228.984 -683.958C229.437 -684.446 229.894 -684.93 230.354 -685.411L229.992 -685.757C230.454 -686.24 230.919 -686.719 231.388 -687.195L231.744 -686.844C232.211 -687.318 232.682 -687.788 233.156 -688.256L232.805 -688.612C233.281 -689.081 233.76 -689.546 234.243 -690.008L234.589 -689.646C235.07 -690.106 235.554 -690.563 236.042 -691.016L235.702 -691.382C236.191 -691.837 236.684 -692.288 237.18 -692.735L237.515 -692.364C238.009 -692.809 238.507 -693.251 239.008 -693.689L238.679 -694.065C239.181 -694.505 239.687 -694.941 240.197 -695.374L240.52 -694.993C241.028 -695.423 241.538 -695.85 242.052 -696.274L241.734 -696.66C242.25 -697.084 242.768 -697.505 243.29 -697.922L243.602 -697.531C244.122 -697.947 244.645 -698.359 245.171 -698.766L244.865 -699.162C245.393 -699.571 245.924 -699.976 246.458 -700.378L246.759 -699.978C247.29 -700.378 247.825 -700.774 248.363 -701.165L248.069 -701.569C248.608 -701.963 249.151 -702.352 249.697 -702.737L249.985 -702.329C250.529 -702.713 251.076 -703.093 251.626 -703.469L251.343 -703.881C251.894 -704.258 252.448 -704.631 253.005 -705L253.281 -704.583C253.836 -704.95 254.394 -705.314 254.954 -705.673L254.684 -706.094C255.247 -706.454 255.812 -706.811 256.38 -707.163L256.643 -706.738C257.209 -707.089 257.777 -707.435 258.348 -707.777L258.091 -708.206C258.663 -708.549 259.239 -708.889 259.817 -709.223L260.067 -708.791C260.643 -709.124 261.222 -709.454 261.803 -709.779L261.559 -710.215C262.142 -710.541 262.727 -710.863 263.315 -711.181L263.553 -710.741C264.138 -711.057 264.726 -711.368 265.316 -711.675L265.085 -712.119C265.677 -712.427 266.272 -712.731 266.87 -713.031L267.094 -712.584C267.689 -712.883 268.286 -713.177 268.886 -713.466L268.669 -713.917C269.27 -714.207 269.873 -714.492 270.478 -714.774L270.689 -714.32C271.292 -714.6 271.898 -714.876 272.506 -715.147L272.302 -715.604C272.913 -715.876 273.526 -716.144 274.141 -716.407L274.337 -715.948C274.948 -716.209 275.561 -716.466 276.177 -716.719L275.987 -717.181C276.605 -717.434 277.224 -717.683 277.846 -717.927L278.029 -717.462C278.649 -717.705 279.271 -717.944 279.895 -718.178L279.719 -718.646C280.344 -718.881 280.971 -719.11 281.6 -719.335L281.768 -718.865C282.394 -719.089 283.022 -719.308 283.652 -719.523L283.49 -719.996C284.123 -720.211 284.757 -720.422 285.394 -720.628L285.548 -720.153C286.18 -720.358 286.815 -720.558 287.452 -720.753L287.305 -721.231C287.942 -721.427 288.582 -721.618 289.223 -721.804L289.363 -721.324C290.001 -721.51 290.642 -721.69 291.285 -721.866L291.153 -722.349C291.797 -722.525 292.444 -722.697 293.092 -722.864L293.217 -722.38C293.859 -722.545 294.504 -722.706 295.15 -722.862L295.033 -723.348C295.682 -723.504 296.332 -723.656 296.985 -723.803L297.095 -723.315C297.744 -723.461 298.396 -723.603 299.049 -723.739L298.947 -724.229C299.599 -724.365 300.253 -724.497 300.908 -724.623L301.003 -724.132C301.655 -724.258 302.309 -724.379 302.965 -724.495L302.877 -724.988C303.536 -725.104 304.195 -725.216 304.856 -725.323L304.936 -724.829C305.592 -724.935 306.249 -725.036 306.908 -725.132L306.836 -725.627C307.495 -725.723 308.156 -725.814 308.819 -725.901L308.883 -725.405C309.543 -725.491 310.204 -725.572 310.867 -725.648L310.81 -726.144C311.473 -726.221 312.139 -726.292 312.805 -726.358L312.855 -725.86C313.514 -725.926 314.175 -725.986 314.838 -726.042L314.796 -726.54C315.461 -726.596 316.127 -726.646 316.794 -726.692L316.829 -726.193C317.494 -726.239 318.16 -726.279 318.827 -726.315L318.801 -726.814C319.465 -726.849 320.13 -726.88 320.797 -726.905L320.816 -726.405C321.479 -726.43 322.144 -726.451 322.81 -726.466L322.798 -726.966C323.466 -726.981 324.136 -726.991 324.806 -726.996L324.81 -726.496C325.144 -726.499 325.478 -726.5 325.813 -726.5H326.348V-727H327.419V-726.5H327.955C328.292 -726.5 328.628 -726.499 328.964 -726.496L328.968 -726.996C329.643 -726.991 330.316 -726.981 330.988 -726.966L330.977 -726.466C331.647 -726.451 332.315 -726.432 332.982 -726.407L333.001 -726.906C333.671 -726.882 334.339 -726.852 335.007 -726.817L334.981 -726.318C335.653 -726.283 336.323 -726.243 336.992 -726.198L337.026 -726.697C337.697 -726.652 338.368 -726.602 339.036 -726.547L338.995 -726.048C339.661 -725.994 340.326 -725.934 340.989 -725.869L341.038 -726.367C341.708 -726.302 342.377 -726.231 343.045 -726.156L342.989 -725.659C343.656 -725.584 344.321 -725.504 344.985 -725.419L345.048 -725.915C345.715 -725.83 346.379 -725.739 347.042 -725.644L346.971 -725.149C347.634 -725.054 348.295 -724.954 348.955 -724.85L349.033 -725.343C349.699 -725.237 350.363 -725.127 351.025 -725.011L350.939 -724.518C351.599 -724.403 352.257 -724.283 352.913 -724.158L353.007 -724.649C353.666 -724.524 354.323 -724.393 354.978 -724.258L354.877 -723.769C355.535 -723.633 356.191 -723.492 356.845 -723.347L356.954 -723.835C357.611 -723.689 358.265 -723.538 358.918 -723.382L358.802 -722.896C359.453 -722.741 360.101 -722.581 360.748 -722.416L360.871 -722.901C361.524 -722.735 362.174 -722.564 362.823 -722.388L362.692 -721.905C363.339 -721.73 363.984 -721.55 364.627 -721.365L364.765 -721.845C365.41 -721.659 366.054 -721.469 366.695 -721.274L366.549 -720.795C367.19 -720.6 367.829 -720.401 368.465 -720.196L368.618 -720.672C369.259 -720.466 369.898 -720.256 370.534 -720.04L370.374 -719.567C371.008 -719.352 371.64 -719.133 372.27 -718.909L372.437 -719.38C373.07 -719.155 373.701 -718.926 374.329 -718.691L374.154 -718.223C374.783 -717.988 375.409 -717.749 376.032 -717.506L376.214 -717.972C376.84 -717.727 377.464 -717.478 378.085 -717.224L377.896 -716.761C378.515 -716.508 379.132 -716.251 379.746 -715.989L379.942 -716.449C380.562 -716.185 381.179 -715.916 381.793 -715.643L381.59 -715.186C382.202 -714.914 382.811 -714.637 383.418 -714.356L383.628 -714.81C384.237 -714.528 384.844 -714.241 385.448 -713.95L385.231 -713.499C385.835 -713.208 386.436 -712.913 387.034 -712.613L387.258 -713.06C387.859 -712.759 388.458 -712.453 389.054 -712.143L388.823 -711.7C389.416 -711.391 390.007 -711.077 390.595 -710.76L390.833 -711.2C391.424 -710.88 392.013 -710.556 392.599 -710.228L392.355 -709.792C392.939 -709.465 393.521 -709.133 394.1 -708.797L394.351 -709.23C394.932 -708.893 395.51 -708.551 396.085 -708.205L395.828 -707.777C396.401 -707.432 396.972 -707.083 397.54 -706.73L397.804 -707.154C398.375 -706.799 398.943 -706.44 399.508 -706.077L399.238 -705.656C399.801 -705.294 400.361 -704.928 400.918 -704.557L401.195 -704.974C401.754 -704.602 402.31 -704.225 402.863 -703.845L402.58 -703.433C403.132 -703.054 403.681 -702.67 404.227 -702.283L404.516 -702.691C405.064 -702.302 405.609 -701.909 406.151 -701.511L405.855 -701.108C406.395 -700.713 406.931 -700.313 407.465 -699.909L407.766 -700.308C408.302 -699.902 408.835 -699.493 409.365 -699.079L409.057 -698.685C409.584 -698.273 410.109 -697.857 410.63 -697.438L410.944 -697.827C411.467 -697.405 411.986 -696.98 412.503 -696.551L412.183 -696.166C412.698 -695.739 413.21 -695.307 413.718 -694.871L414.043 -695.251C414.553 -694.814 415.06 -694.373 415.564 -693.928L415.233 -693.553C415.734 -693.11 416.232 -692.663 416.727 -692.213L417.064 -692.582C417.56 -692.13 418.054 -691.674 418.543 -691.214L418.201 -690.849C418.689 -690.391 419.173 -689.929 419.654 -689.464L420.002 -689.823C420.485 -689.356 420.964 -688.885 421.439 -688.411L421.086 -688.057C421.56 -687.584 422.03 -687.108 422.497 -686.628L422.855 -686.977C423.324 -686.495 423.788 -686.01 424.249 -685.521L423.886 -685.178C424.345 -684.691 424.801 -684.201 425.253 -683.707L425.622 -684.045C426.075 -683.55 426.525 -683.051 426.971 -682.548L426.597 -682.216C427.042 -681.716 427.482 -681.212 427.919 -680.705L428.298 -681.032C428.736 -680.523 429.171 -680.01 429.602 -679.495L429.218 -679.174C429.647 -678.661 430.072 -678.144 430.494 -677.623L430.882 -677.938C431.305 -677.416 431.724 -676.892 432.139 -676.363L431.746 -676.054C432.159 -675.528 432.569 -674.999 432.974 -674.466L433.372 -674.769C433.779 -674.234 434.182 -673.697 434.581 -673.156L434.179 -672.859C434.576 -672.321 434.969 -671.78 435.358 -671.235L435.765 -671.526C436.156 -670.98 436.542 -670.43 436.925 -669.878L436.514 -669.593C436.895 -669.043 437.272 -668.489 437.645 -667.933L438.06 -668.211C438.434 -667.654 438.803 -667.093 439.169 -666.53L438.749 -666.258C439.113 -665.696 439.473 -665.132 439.829 -664.565L440.253 -664.831C440.61 -664.262 440.963 -663.69 441.312 -663.115L440.884 -662.856C441.231 -662.284 441.574 -661.709 441.912 -661.132L442.344 -661.385C442.683 -660.806 443.018 -660.224 443.349 -659.639L442.914 -659.393C443.244 -658.81 443.57 -658.225 443.891 -657.637L444.33 -657.877C444.652 -657.288 444.969 -656.696 445.283 -656.101L444.84 -655.868C445.152 -655.277 445.459 -654.683 445.762 -654.086L446.208 -654.312C446.512 -653.714 446.812 -653.112 447.108 -652.508L446.658 -652.288C446.953 -651.687 447.242 -651.083 447.528 -650.477L447.98 -650.69C448.265 -650.083 448.547 -649.474 448.823 -648.862L448.368 -648.656C448.643 -648.046 448.915 -647.434 449.182 -646.82L449.64 -647.019C449.908 -646.402 450.171 -645.783 450.43 -645.162L449.968 -644.97C450.225 -644.353 450.477 -643.734 450.725 -643.113L451.19 -643.299C451.438 -642.675 451.682 -642.049 451.922 -641.421L451.455 -641.243C451.694 -640.617 451.928 -639.989 452.157 -639.359L452.627 -639.53C452.857 -638.9 453.082 -638.268 453.302 -637.634L452.83 -637.47C453.049 -636.838 453.264 -636.205 453.474 -635.569L453.949 -635.726C454.16 -635.088 454.366 -634.448 454.568 -633.806L454.091 -633.656C454.291 -633.018 454.487 -632.378 454.678 -631.736L455.157 -631.879C455.348 -631.237 455.535 -630.592 455.717 -629.945L455.235 -629.81C455.416 -629.166 455.593 -628.52 455.765 -627.872L456.248 -628C456.42 -627.35 456.588 -626.699 456.751 -626.046L456.265 -625.925C456.427 -625.278 456.583 -624.628 456.735 -623.977L457.222 -624.091C457.375 -623.437 457.523 -622.781 457.666 -622.124L457.177 -622.018C457.319 -621.363 457.457 -620.706 457.59 -620.048L458.08 -620.147C458.213 -619.491 458.34 -618.833 458.463 -618.173L457.972 -618.082C458.094 -617.425 458.212 -616.766 458.325 -616.106L458.818 -616.19C458.931 -615.528 459.04 -614.863 459.143 -614.197L458.649 -614.12C458.752 -613.461 458.85 -612.799 458.943 -612.136L459.438 -612.206C459.532 -611.542 459.62 -610.877 459.704 -610.211L459.208 -610.149C459.291 -609.485 459.369 -608.819 459.443 -608.152L459.94 -608.207C460.014 -607.539 460.083 -606.87 460.147 -606.2L459.649 -606.152C459.712 -605.489 459.771 -604.824 459.825 -604.157L460.323 -604.197C460.377 -603.528 460.426 -602.858 460.47 -602.187L459.971 -602.154C460.015 -601.485 460.054 -600.814 460.089 -600.142L460.588 -600.168C460.622 -599.5 460.651 -598.831 460.676 -598.161L460.176 -598.143C460.201 -597.476 460.22 -596.807 460.235 -596.138L460.735 -596.149C460.749 -595.477 460.759 -594.803 460.764 -594.129L460.264 -594.125C460.267 -593.79 460.268 -593.455 460.268 -593.119C460.263 -592.781 460.259 -592.443 460.257 -592.105L460.757 -592.102C460.752 -591.426 460.753 -590.752 460.758 -590.078L460.258 -590.074C460.264 -589.399 460.274 -588.724 460.29 -588.051L460.79 -588.062C460.805 -587.391 460.826 -586.721 460.851 -586.052L460.352 -586.033C460.378 -585.354 460.409 -584.677 460.445 -584.001L460.944 -584.028C460.98 -583.355 461.022 -582.683 461.068 -582.013L460.569 -581.979C460.615 -581.306 460.667 -580.634 460.723 -579.964L461.221 -580.006C461.278 -579.334 461.34 -578.663 461.406 -577.993L460.909 -577.944C460.976 -577.27 461.048 -576.597 461.126 -575.926L461.622 -575.984C461.699 -575.315 461.781 -574.649 461.868 -573.983L461.372 -573.919C461.46 -573.249 461.553 -572.58 461.65 -571.913L462.145 -571.986C462.243 -571.318 462.346 -570.652 462.453 -569.987L461.96 -569.907C462.068 -569.24 462.181 -568.574 462.3 -567.911L462.792 -567.998C462.91 -567.337 463.032 -566.677 463.16 -566.019L462.669 -565.924C462.798 -565.258 462.933 -564.594 463.072 -563.933L463.561 -564.035C463.7 -563.376 463.843 -562.719 463.992 -562.063L463.504 -561.953C463.653 -561.295 463.807 -560.638 463.966 -559.984L464.452 -560.102C464.611 -559.447 464.775 -558.793 464.943 -558.142L464.459 -558.016C464.629 -557.361 464.804 -556.708 464.983 -556.058L465.465 -556.191C465.644 -555.542 465.828 -554.896 466.017 -554.251L465.537 -554.111C465.726 -553.462 465.921 -552.815 466.121 -552.171L466.598 -552.319C466.798 -551.675 467.002 -551.033 467.211 -550.393L466.735 -550.238C466.945 -549.596 467.16 -548.956 467.379 -548.318L467.852 -548.48C468.07 -547.844 468.294 -547.21 468.522 -546.578L468.052 -546.409C468.282 -545.772 468.516 -545.138 468.756 -544.506L469.223 -544.683C469.462 -544.054 469.705 -543.426 469.953 -542.801L469.488 -542.617C469.737 -541.99 469.99 -541.365 470.248 -540.742L470.71 -540.934C470.969 -540.311 471.231 -539.691 471.499 -539.073L471.04 -538.874C471.309 -538.254 471.582 -537.636 471.859 -537.021L472.315 -537.226C472.592 -536.613 472.873 -536.003 473.159 -535.395L472.706 -535.182C472.994 -534.57 473.286 -533.961 473.583 -533.354L474.032 -533.574C474.328 -532.969 474.628 -532.367 474.933 -531.767L474.487 -531.54C474.793 -530.938 475.104 -530.339 475.419 -529.742L475.861 -529.976C476.175 -529.38 476.494 -528.788 476.817 -528.198L476.378 -527.958C476.703 -527.365 477.032 -526.775 477.366 -526.187L477.8 -526.434C478.133 -525.849 478.469 -525.267 478.81 -524.687L478.379 -524.434C478.722 -523.852 479.069 -523.272 479.42 -522.696L479.847 -522.956C480.197 -522.381 480.552 -521.809 480.91 -521.239L480.487 -520.973C480.848 -520.401 481.212 -519.833 481.581 -519.267L482 -519.54C482.367 -518.977 482.739 -518.416 483.114 -517.859L482.7 -517.579C483.078 -517.019 483.459 -516.461 483.845 -515.907L484.256 -516.193C484.64 -515.641 485.029 -515.091 485.422 -514.545L485.016 -514.253C485.41 -513.705 485.809 -513.16 486.211 -512.618L486.613 -512.916C487.014 -512.376 487.419 -511.839 487.829 -511.305L487.432 -511.001C487.843 -510.464 488.258 -509.932 488.677 -509.402L489.069 -509.712C489.487 -509.185 489.908 -508.66 490.333 -508.139L489.946 -507.823C490.373 -507.3 490.804 -506.78 491.239 -506.263L491.622 -506.585C492.055 -506.07 492.492 -505.559 492.933 -505.051L492.556 -504.723C492.999 -504.213 493.445 -503.707 493.896 -503.203L494.268 -503.537C494.717 -503.036 495.169 -502.538 495.626 -502.043L495.258 -501.704C495.716 -501.208 496.178 -500.715 496.644 -500.226L497.006 -500.57C497.47 -500.083 497.937 -499.599 498.408 -499.119L498.051 -498.768C498.524 -498.286 499.001 -497.808 499.481 -497.333L499.833 -497.688C500.311 -497.215 500.793 -496.746 501.278 -496.28L500.932 -495.919C501.419 -495.451 501.91 -494.988 502.405 -494.527L502.745 -494.893C503.238 -494.435 503.734 -493.98 504.233 -493.529L503.898 -493.158C504.399 -492.705 504.904 -492.257 505.411 -491.812L505.741 -492.188C506.247 -491.745 506.757 -491.305 507.269 -490.869L506.946 -490.488C507.46 -490.051 507.979 -489.618 508.5 -489.188L508.818 -489.574C509.337 -489.146 509.859 -488.723 510.385 -488.303L510.073 -487.912C510.601 -487.491 511.132 -487.073 511.666 -486.66L511.972 -487.055C512.504 -486.643 513.039 -486.235 513.578 -485.831L513.278 -485.431C513.818 -485.026 514.361 -484.625 514.907 -484.228L515.201 -484.633C515.745 -484.237 516.292 -483.846 516.842 -483.458L516.555 -483.049C517.107 -482.661 517.662 -482.276 518.221 -481.895L518.503 -482.308C519.058 -481.93 519.617 -481.555 520.178 -481.185L519.903 -480.767C520.466 -480.396 521.033 -480.028 521.602 -479.665L521.871 -480.087C522.439 -479.725 523.009 -479.367 523.582 -479.013L523.32 -478.588C523.894 -478.233 524.471 -477.883 525.052 -477.537L525.308 -477.967C525.885 -477.623 526.465 -477.283 527.048 -476.947L526.799 -476.514C527.384 -476.177 527.972 -475.844 528.563 -475.516L528.806 -475.953C529.394 -475.626 529.985 -475.304 530.578 -474.986L530.342 -474.545C530.937 -474.226 531.534 -473.912 532.134 -473.602L532.363 -474.046C532.961 -473.738 533.561 -473.433 534.164 -473.133L533.941 -472.686C534.546 -472.385 535.154 -472.089 535.763 -471.797L535.979 -472.248C536.585 -471.958 537.194 -471.672 537.805 -471.391L537.596 -470.937C538.209 -470.655 538.825 -470.377 539.443 -470.104L539.645 -470.561C540.261 -470.289 540.879 -470.022 541.5 -469.759L541.305 -469.298C541.926 -469.035 542.548 -468.777 543.174 -468.523L543.362 -468.987C543.985 -468.734 544.61 -468.486 545.238 -468.242L545.057 -467.776C545.687 -467.531 546.319 -467.292 546.953 -467.056L547.127 -467.525C547.757 -467.292 548.389 -467.063 549.023 -466.839L548.856 -466.367C549.492 -466.142 550.13 -465.922 550.771 -465.707L550.93 -466.181C551.568 -465.966 552.208 -465.756 552.85 -465.551L552.698 -465.075C553.341 -464.869 553.985 -464.669 554.632 -464.473L554.777 -464.951C555.42 -464.756 556.064 -464.567 556.711 -464.381L556.573 -463.901C557.223 -463.715 557.874 -463.534 558.527 -463.357L558.657 -463.84C559.307 -463.665 559.958 -463.494 560.612 -463.328L560.489 -462.844C561.142 -462.678 561.796 -462.517 562.453 -462.361L562.568 -462.848C563.222 -462.693 563.878 -462.542 564.536 -462.396L564.428 -461.908C565.088 -461.762 565.75 -461.62 566.414 -461.484L566.515 -461.974C567.171 -461.839 567.83 -461.708 568.49 -461.583L568.397 -461.092C569.059 -460.966 569.723 -460.845 570.389 -460.729L570.475 -461.222C571.138 -461.106 571.803 -460.995 572.47 -460.89L572.392 -460.396C573.057 -460.29 573.724 -460.19 574.393 -460.094L574.464 -460.589C575.128 -460.494 575.794 -460.403 576.461 -460.318L576.398 -459.822C577.068 -459.737 577.739 -459.656 578.412 -459.58L578.468 -460.077C579.136 -460.002 579.806 -459.932 580.478 -459.866L580.429 -459.369C581.099 -459.303 581.77 -459.243 582.442 -459.188L582.483 -459.686C583.153 -459.631 583.824 -459.581 584.496 -459.536L584.463 -459.037C585.138 -458.992 585.814 -458.952 586.492 -458.916L586.518 -459.416C587.187 -459.381 587.857 -459.351 588.528 -459.326L588.509 -458.826C589.182 -458.801 589.857 -458.781 590.532 -458.766L590.544 -459.266Z" stroke="#5D6C74" stroke-dasharray="2 2"/>
</g>
<path d="M602.8 308.963L583 338.463L598.6 370.363L634 372.763L653.8 343.263L638.2 311.363L602.8 308.963Z" fill="#F5F7FA" stroke="#001E2B" stroke-width="0.75" stroke-miterlimit="10"/>
<path d="M634.002 372.763L653.802 343.263L618.402 340.863L598.602 370.363L634.002 372.763Z" fill="#00AA57" stroke="#001E2B" stroke-width="0.75" stroke-miterlimit="10"/>
<path d="M602.801 308.963L618.401 340.863" stroke="#001E2B" stroke-width="0.75" stroke-miterlimit="10"/>
</svg>
