<svg width="91" height="49" viewBox="0 0 91 49" fill="none" xmlns="http://www.w3.org/2000/svg">
<path d="M86.7975 20.7717C86.7435 18.5045 85.6221 16.3359 83.7022 15.3206C84.4613 14.1525 85.1862 12.9894 85.8719 11.8607C86.5967 13.3344 87.6693 14.9263 87.6693 17.021C87.6693 18.3517 87.3608 19.6578 86.7975 20.7717ZM84.9413 23.034C84.1283 23.6303 83.1635 23.9802 82.0811 23.9802C80.6363 23.9802 79.407 23.3839 78.6429 22.3538C80.0926 20.5795 81.5277 18.5883 82.8794 16.5676C84.4564 17.4597 85.098 19.5198 85.098 21.3829C85.098 21.9595 85.049 22.5115 84.9413 23.034M77.9377 20.7963C77.8591 20.4466 77.82 20.0718 77.82 19.6824C77.82 17.7061 79.2158 16.1141 81.0622 16.1141C81.1848 16.1141 81.3071 16.1182 81.4198 16.1284C80.2443 17.8041 79.0689 19.3961 77.9375 20.7958M56.4026 29.7314C55.7707 29.7314 55.4818 29.214 55.4818 28.2676C55.4818 25.2069 58.1853 18.7899 62.5246 15.0194C63.0046 15.8179 63.2201 16.8332 63.225 17.8928C63.2428 22.9496 58.6408 29.7314 56.4026 29.7314M39.1971 33.4871C38.5849 33.4871 38.2764 32.9548 38.2764 32.0479C38.2764 28.0951 44.9469 15.1673 48.3018 15.1673C48.9336 15.1673 49.2226 15.6996 49.2226 16.6261C49.2226 20.6184 42.5912 33.4871 39.1971 33.4871M29.4704 19.9826C28.6525 19.0905 27.7611 18.366 26.8403 17.8041C29.1227 13.0824 31.6548 8.62206 34.8235 5.22129C35.901 6.34008 36.4838 7.86796 36.4838 9.69647C36.4838 14.2407 33.506 18.228 29.4704 19.9826ZM16.8443 41.9347C15.9627 41.9347 15.1595 41.8163 14.4395 41.6046C18.3919 37.1294 21.3354 29.9632 24.5532 22.7674C25.9049 22.8117 27.2028 22.6443 28.3537 22.4373C28.9953 23.8025 29.392 25.4733 29.392 27.4595C29.392 33.9604 24.6413 41.935 16.8443 41.935M11.5793 40.0029C10.3108 38.8052 9.68387 37.2577 9.69858 35.9713C9.70946 35.3306 9.87983 34.7391 10.1541 34.2266C10.5606 35.1236 11.5499 35.8037 12.7498 35.8037C13.2151 35.8037 13.6559 35.7054 14.0624 35.5377C13.2494 37.2085 12.4315 38.7166 11.5793 40.003M20.0963 18.6324C20.0963 17.76 21.1444 17.6072 22.2611 17.7403C21.8595 18.4944 21.4677 19.2534 21.0905 20.0173C20.4587 19.6231 20.0963 19.1352 20.0963 18.6324M26.0665 19.4407C26.4975 19.8005 26.904 20.2145 27.2763 20.6827C26.6591 20.8158 26.0274 20.8945 25.3858 20.9191C25.6111 20.4263 25.8364 19.9285 26.0665 19.4406M86.6652 10.6774C87.4194 9.81 87.8895 8.72571 87.8895 7.92723C87.8895 7.3851 87.5761 7.04011 87.0716 7.04011C86.2341 7.04011 85.2253 8.08 85.2253 9.64733C85.2253 9.86908 85.2537 10.086 85.2938 10.3029C84.3339 11.816 83.3347 13.3487 82.3209 14.8273C81.9734 14.7583 81.6108 14.719 81.2287 14.719C78.7946 14.719 76.287 16.5574 76.287 19.8794C76.287 20.7813 76.4438 21.5748 76.7131 22.2599C74.6267 24.6503 72.795 26.1979 71.5559 26.1979C71.0661 26.1979 70.7723 25.9318 70.7723 25.3748C70.7723 24.7784 71.0612 23.8321 71.6343 22.5162L78.7897 6.56219L86.5182 5.64542L87.3949 3.80213L79.9162 4.04855L81.214 1.16035L78.3147 1.52509L76.9972 4.1422L66.5358 4.48231L64.6551 8.23799L75.5965 6.94176L73.3974 11.3331C72.2709 10.8255 70.9094 10.5347 69.3225 10.5347C66.9276 10.5347 64.7041 11.1311 62.7009 12.1415C61.7949 11.6979 60.7713 11.481 59.7281 11.481C57.2009 11.481 54.3407 12.7033 52.0143 14.8473C51.5441 13.3884 50.5597 12.5111 49.1002 12.5111C47.4007 12.5111 45.5935 13.4081 43.8646 14.8621C42.8312 14.0094 41.3325 13.763 39.7604 14.3643C40.6077 12.7723 41.073 11.0769 41.073 9.39126C41.073 6.44884 39.7016 4.28517 37.1989 2.97912C38.056 2.27923 38.9571 1.65331 39.9122 1.11609C39.5596 0.834973 39.3392 0.662652 39.0453 0.5C37.8013 1.00765 36.6259 1.60896 35.5141 2.28911C33.9371 1.78146 32.0564 1.52517 29.9063 1.52517C19.92 1.52517 10.4724 7.32616 10.4724 14.4924C10.4724 17.6566 12.2503 18.7853 14.0085 18.7853C15.6492 18.7853 17.2557 17.8587 17.765 16.7349C16.3349 16.4392 15.4876 15.1923 15.4876 13.6102C15.4876 8.03095 22.2072 3.1467 29.1031 3.1467C30.6458 3.1467 31.9829 3.43747 33.08 3.96977C28.8925 7.21281 25.6796 11.6289 23.0251 16.3505C22.6382 16.2915 22.2611 16.2618 21.9084 16.2618C19.9249 16.2618 18.4948 17.1194 18.4948 18.7754C18.4948 19.8991 19.2245 20.8651 20.3363 21.565C18.7005 25.0002 17.2606 28.4405 15.8843 31.5701C15.4044 30.6189 14.3171 29.9979 13.0535 29.9979C10.017 29.9979 7.73464 32.6889 7.73464 36.0158C7.73464 38.1893 8.61133 40.2643 10.1198 41.9252C8.6946 43.527 7.13712 44.4783 5.3152 44.5226C4.71769 44.537 4.13977 44.3946 3.62551 44.0938C5.05073 43.9361 6.22126 42.8715 6.18698 41.4866C6.15146 40.1016 5.00666 39.1208 3.4345 39.1553C1.50973 39.1997 0.466526 40.8212 0.500819 42.2406C0.559599 44.8725 2.77821 46.2526 5.67273 46.1836C8.17544 46.1245 10.3255 45.2274 12.2405 43.7143C14.0575 44.8874 16.33 45.602 18.8719 45.602C26.5514 45.602 33.0702 39.0173 33.0702 30.1802C33.0702 26.6661 32.169 23.8864 30.8271 21.7572C33.3199 20.875 35.5092 19.4654 37.2136 17.765C39.6036 15.3795 41.3815 15.6013 42.3904 16.247C38.4282 20.3871 35.2105 27.0653 35.2105 31.5554C35.2105 34.3351 36.3124 36.1439 38.438 36.1439C44.8147 36.1439 52.4257 23.773 52.3326 16.9765C54.3799 14.6944 57.1176 13.3342 59.3412 13.3342C59.7624 13.3342 60.1444 13.3834 60.4921 13.4772C55.5112 17.0209 52.4061 23.0831 52.4061 27.7456C52.4061 30.2198 53.6109 32.0927 55.9618 32.0927C60.35 32.0927 66.0656 25.2172 66.0656 18.3565C66.0656 16.252 65.473 14.665 64.5278 13.5511C66.0607 12.6344 67.7455 12.0775 69.5528 12.0775C70.6009 12.0775 71.6979 12.3239 72.6823 12.7576L68.2892 21.5257C67.2656 23.6647 66.8688 25.2517 66.8688 26.4001C66.8688 28.1744 67.8974 29.0813 69.5381 29.0813C71.9183 29.0813 74.7296 26.8535 77.531 23.6696C78.7408 25.1778 80.6264 25.853 82.1887 25.853C82.6834 25.853 83.1927 25.8037 83.707 25.7099C82.5266 27.2082 80.5627 28.3369 77.6828 29.0614L39.5449 38.6575C33.751 40.1115 30.2099 42.9898 31.9192 48.5C33.2416 47.4058 35.6219 46.3363 41.7733 44.4486L76.3948 33.8274C81.4589 32.27 84.6718 28.6178 86.0431 24.9312C88.4038 23.7829 90.5 21.5797 90.5 18.5191C90.5 15.143 87.6888 13.1271 86.6651 10.6776" fill="#1E1C59"/>
</svg>
