<svg width="165" height="13" viewBox="0 0 165 13" fill="none" xmlns="http://www.w3.org/2000/svg">
<path fill-rule="evenodd" clip-rule="evenodd" d="M39.1904 6.45612C39.1904 2.85756 42.1972 0 47.8458 0C53.4937 0 56.5349 2.85756 56.5349 6.45612C56.5349 10.0896 53.685 13 47.8811 13C42.0756 13 39.1904 10.0896 39.1904 6.45612V6.45612ZM44.8566 6.38544C44.8214 8.67831 45.7252 11.0069 47.7938 11.0419C49.9136 11.0776 50.8174 8.73113 50.8695 6.49188C50.9047 4.10963 49.8792 1.99306 47.9499 1.95812C46.0206 1.92237 44.8911 4.004 44.8566 6.38544ZM2.79789 2.15231L8.48172 12.6295H15.0501L20.6283 2.15231H23.427V0.264875H15.0157V2.15231H17.4494L13.3826 9.78981L9.26304 2.15231H12.217V0.264875H0V2.15231H2.79789V2.15231ZM75.1483 2.15231V0.264875H86.4102V2.15231H83.5947V10.7071H86.2021C88.6181 10.7071 90.1816 9.10162 90.1816 6.8965H92.0412V12.6295H75.1314V10.7071H77.9637V2.1515H75.1491L75.1483 2.15231ZM111.263 2.15231L116.929 12.6295H123.515L129.094 2.15231H131.893V0.264875H123.481V2.15231H125.914L121.847 9.78981L117.728 2.15231H120.683V0.264875H108.465V2.15231H111.263V2.15231ZM147.656 6.45612C147.656 2.85756 150.662 0 156.311 0C161.976 0 165 2.85756 165 6.45612C165 10.0896 162.15 13 156.345 13C150.541 13 147.656 10.0896 147.656 6.45612V6.45612ZM153.304 6.38544C153.269 8.67831 154.173 11.0069 156.241 11.0419C158.379 11.0776 159.283 8.73113 159.317 6.49188C159.352 4.10963 158.327 1.99306 156.397 1.95812C154.468 1.92237 153.339 4.004 153.304 6.38544V6.38544Z" fill="black"/>
</svg>
