<svg width="166" height="46" viewBox="0 0 166 46" fill="none" xmlns="http://www.w3.org/2000/svg">
<path d="M26.9883 0.264404V46H27.7766V0.264404" fill="#A90533"/>
<path d="M0.232422 12.6975V15.2801L10.8906 23.0646L0.232422 30.8307V33.4501L14.429 23.0646L0.232422 12.6975Z" fill="#A90533"/>
<path d="M0 7.77832V10.367L17.7229 23.0645L0 35.8666V38.486L21.2674 23.0645L0 7.77832Z" fill="#A90533"/>
<path d="M0.232422 25.6472V28.2359L7.3399 23.0647L0.232422 17.8442V20.476L3.78922 23.0647L0.232422 25.6472Z" fill="#A90533"/>
<path d="M42.168 0.11084H36.0566V18.1149H42.168C43.7753 18.1149 45.1503 18.1149 46.5192 17.2725C47.7965 16.4977 48.4749 14.6899 48.4749 13.1219C48.5004 11.9085 48.063 10.7313 47.2526 9.83227C46.7701 9.29813 46.1472 8.91228 45.4559 8.71932C46.2809 8.39957 47.9982 7.75395 47.9982 4.86396C48.0291 3.72181 47.702 2.59884 47.0632 1.65422C45.9631 0.110846 43.9525 0.11084 42.1741 0.11084M39.8701 7.37886V3.02544H41.4285C42.2046 3.02544 43.9953 3.02543 43.9953 5.12836C43.9953 7.37886 42.1985 7.37886 41.1229 7.37886H39.8701ZM39.8701 15.0097V10.2811H41.7707C42.6447 10.2811 44.4719 10.2812 44.4719 12.6362C44.4719 14.4132 43.488 15.0035 41.8013 15.0035L39.8701 15.0097Z" fill="#A90533"/>
<path d="M54.9657 4.51318C54.0634 4.48574 53.1704 4.70375 52.381 5.14419C51.5915 5.58464 50.9347 6.23122 50.4799 7.0158C49.7989 8.44862 49.4579 10.021 49.4838 11.609C49.4838 15.1447 50.9322 18.3728 54.984 18.3728C59.2619 18.3728 59.9708 14.9725 60.2397 13.7304L56.9396 13.5152C56.8357 14.3883 56.6463 15.8026 55.0634 15.8026C53.23 15.8026 53.2667 13.8595 53.2973 12.0579H60.2458C60.2458 10.4407 60.2458 8.73748 59.2741 6.9297C58.8462 6.16688 58.2178 5.53732 57.4578 5.10999C56.6979 4.68265 55.8356 4.47406 54.9657 4.50705M53.3278 9.93038C53.3278 8.99574 53.3828 6.96046 55.0451 6.96046C56.8418 6.96046 56.7868 9.21095 56.7624 9.93038H53.3278Z" fill="#A90533"/>
<path d="M68.3734 4.51339C66.2956 4.51339 65.605 5.50337 65.0733 6.61632V4.80854H61.5898V18.084H65.2566V10.3118C65.2566 8.6885 65.2566 7.39107 66.8945 7.39107C68.0373 7.39107 68.1595 8.17814 68.1595 9.37103V18.084H71.8263V9.37103C71.8263 8.04901 71.8263 6.74544 71.2824 5.91534C70.9595 5.44649 70.5211 5.07017 70.01 4.82331C69.4989 4.57645 68.9328 4.46754 68.3673 4.50725" fill="#A90533"/>
<path d="M83.6344 0.11084H80.0166V6.02611C79.7593 5.55515 79.3702 5.17059 78.8976 4.92025C78.4249 4.66991 77.8896 4.56482 77.3581 4.618C72.9824 4.618 72.9824 10.4656 72.9824 11.5232C72.9824 14.1734 73.6608 18.287 77.1992 18.287C79.2893 18.287 79.8577 16.8789 80.2549 15.9197V18.0841H83.6589L83.6344 0.11084ZM78.3787 15.7352C76.7959 15.7352 76.7959 13.5278 76.7959 10.9452C76.7959 8.79927 76.9792 7.07757 78.4032 7.07757C80.0105 7.07757 80.0105 9.21739 80.0105 10.398V12.753C80.0105 13.7184 80.0104 15.7352 78.3726 15.7352" fill="#A90533"/>
<path d="M89.2621 0H85.5586V3.68935H89.2804L89.2621 0ZM89.2621 4.80845H85.5953V18.084H89.2621V4.80845Z" fill="#A90533"/>
<path d="M101.356 2.49652C99.3457 2.49652 99.0524 3.72631 98.8691 5.13441C97.9829 4.70151 97.0058 4.49055 96.0212 4.51952C93.7477 4.51952 91.0832 5.45416 91.0832 8.6147C91.0832 10.8591 92.2382 11.5047 93.0388 11.9351C92.1649 12.4578 90.7654 13.2571 90.7654 14.8804C90.7654 16.3623 92.0549 16.9526 92.4827 17.1678C91.6577 17.463 90.3438 18.0102 90.3438 19.6581C90.3438 22.8187 94.6217 22.8187 95.7584 22.8187C97.8973 22.8187 102.224 22.5112 102.224 18.3853C102.26 17.8163 102.151 17.2475 101.909 16.7323C101.666 16.2171 101.297 15.7724 100.837 15.44C99.8896 14.7698 99.0035 14.7206 95.9784 14.5546C94.5544 14.45 93.7844 14.3947 93.7844 13.6568C93.7844 13.5461 93.7844 13.0419 94.6339 12.5562C95.2015 12.7125 95.7871 12.7931 96.3756 12.796C98.8996 12.796 101.149 11.4678 101.149 8.79303C101.171 7.81156 100.819 6.8587 100.165 6.13054C100.403 4.96224 101.124 4.90075 101.546 4.90075C101.82 4.89872 102.094 4.93389 102.359 5.00529V2.6072C102.024 2.51791 101.679 2.47245 101.332 2.47192M96.1312 10.773C94.9578 10.773 94.8661 9.54318 94.8661 8.72538C94.8661 7.182 95.2267 6.48718 96.1862 6.48718C96.944 6.48718 97.3412 6.99754 97.3412 8.6393C97.3412 10.0474 97.1029 10.7668 96.119 10.7668M96.2778 20.4575C94.2978 20.4575 93.3627 20.0578 93.3627 19.1047C93.3699 18.7554 93.4832 18.4166 93.6876 18.1341C93.8919 17.8515 94.1774 17.6388 94.5056 17.5245C94.9945 17.5798 97.1151 17.7089 97.5612 17.7643C98.1174 17.7643 99.0096 18.0348 99.0096 19.0494C99.0096 20.064 98.2029 20.4575 96.2962 20.4575" fill="#A90533"/>
<path d="M106.814 4.51318C102.866 4.51318 101.424 7.28636 101.424 11.443C101.424 15.7473 102.982 18.379 106.783 18.379C110.585 18.379 112.174 15.7042 112.174 11.443C112.174 7.28021 110.725 4.51318 106.814 4.51318ZM106.814 15.7842C105.708 15.7842 105.231 14.9786 105.231 11.4492C105.231 8.18408 105.604 7.10189 106.79 7.10189C107.908 7.10189 108.348 8.02421 108.348 11.4492C108.348 15.0094 107.859 15.7842 106.79 15.7842" fill="#A90533"/>
<path d="M118.45 4.43327C117.567 4.41762 116.691 4.61141 115.896 4.99898C115.333 5.26363 114.844 5.66338 114.471 6.16305C114.098 6.66271 113.853 7.24696 113.757 7.86437L115.682 8.18411C115.784 7.56738 116.11 7.01069 116.596 6.62209C117.083 6.2335 117.696 6.04073 118.316 6.08119C120.76 6.08119 120.76 8.42392 120.76 9.377V9.93656C120.182 9.86697 119.601 9.83205 119.019 9.83202C116.849 9.83202 115.211 10.3424 114.215 11.5291C113.559 12.3787 113.211 13.4291 113.231 14.5052C113.231 16.9648 114.814 18.4959 117.118 18.4959C119.526 18.4959 120.394 16.8233 120.925 15.7657C120.913 16.5538 120.967 17.3415 121.084 18.1208H122.961C122.747 17.0631 122.722 16.5282 122.722 13.8534V9.94271C122.722 8.43008 122.722 6.81291 121.922 5.84753C121.48 5.36852 120.939 4.99381 120.337 4.75034C119.735 4.50687 119.086 4.40069 118.438 4.43943M117.509 16.8541C115.981 16.8541 115.315 15.944 115.315 14.5667C115.315 12.3961 116.538 11.357 119.251 11.357C119.766 11.3543 120.281 11.4079 120.785 11.5168C120.864 12.9495 120.864 13.9395 120.229 15.157C119.977 15.6654 119.59 16.0937 119.111 16.3943C118.632 16.695 118.08 16.8562 117.515 16.8602" fill="#A90533"/>
<path d="M130.704 4.43328C129.953 4.41366 129.216 4.63898 128.602 5.0756C127.989 5.51223 127.532 6.13674 127.3 6.85595V4.80837H125.467V18.0839H127.422V10.9388C127.422 7.1757 128.687 6.0812 130.27 6.0812C132.305 6.0812 132.305 7.69835 132.305 9.91196V18.0839H134.261V9.64141C134.261 8.15952 134.261 7.01584 133.864 6.21648C133.567 5.64122 133.108 5.16626 132.546 4.8504C131.983 4.53455 131.341 4.39166 130.698 4.43943" fill="#A90533"/>
<path d="M146.256 0.11084H144.3V6.6164C144.036 5.96548 143.576 5.41455 142.983 5.04157C142.391 4.66859 141.697 4.49244 141 4.53807C138.274 4.53807 136.307 6.99764 136.307 11.6339C136.307 13.6262 136.747 18.3977 140.951 18.3977C141.685 18.4408 142.415 18.261 143.046 17.8816C143.677 17.5022 144.18 16.9408 144.49 16.2702V18.1149H146.256V0.11084ZM141.452 16.7129C139.179 16.7129 138.488 14.4255 138.488 11.3449C138.488 8.85461 138.965 6.16137 141.348 6.16137C141.781 6.15828 142.209 6.26139 142.593 6.46174C142.977 6.66209 143.307 6.95366 143.555 7.31123C144.104 8.1603 144.366 9.16555 144.3 10.1766V12.3841C144.3 13.7123 144.245 14.8436 143.61 15.6246C143.357 15.9596 143.031 16.2316 142.657 16.4193C142.283 16.607 141.87 16.7054 141.452 16.7068" fill="#A90533"/>
<path d="M43.2192 24.8477H39.2407L33.875 42.8517H37.4929L38.3852 39.1623H43.3903L44.2948 42.8517H48.2977L43.2192 24.8477ZM39.1124 36.051L40.8541 28.7153L42.6509 36.051H39.1124Z" fill="#A90533"/>
<path d="M58.7433 24.8477H55.1254V30.7629C54.8688 30.2914 54.4798 29.9064 54.007 29.656C53.5342 29.4056 52.9986 29.3008 52.467 29.3548C48.1035 29.3548 48.1035 35.2024 48.1035 36.26C48.1035 38.9102 48.7697 43.0238 52.3081 43.0238C54.3982 43.0238 54.9665 41.6158 55.3638 40.6504V42.8332H58.7678L58.7433 24.8477ZM53.4876 40.4843C51.9048 40.4843 51.9048 38.2646 51.9048 35.682C51.9048 33.5361 52.0881 31.8144 53.512 31.8144C55.1193 31.8144 55.1193 33.9542 55.1193 35.1348V37.4898C55.1193 38.4552 55.1193 40.4905 53.4815 40.4905" fill="#A90533"/>
<path d="M65.5803 29.2504C64.6756 29.2255 63.781 29.4472 62.9913 29.8921C62.2016 30.337 61.5462 30.9885 61.0946 31.7777C60.4226 33.2132 60.086 34.7843 60.1106 36.3709C60.1106 39.9065 61.559 43.1347 65.6108 43.1347C69.8888 43.1347 70.5977 39.7344 70.8666 38.4923L67.5665 38.2771C67.4626 39.1502 67.2731 40.5829 65.6903 40.5829C63.8569 40.5829 63.8936 38.6275 63.9241 36.8197H70.891C70.891 35.2026 70.891 33.4994 69.9316 31.6916C69.4985 30.9291 68.8665 30.3004 68.1038 29.8734C67.3412 29.4463 66.477 29.2373 65.6047 29.2689M63.9425 34.6861C63.9425 33.7515 63.9975 31.7162 65.6597 31.7162C67.4565 31.7162 67.4015 33.9605 67.377 34.6861H63.9425Z" fill="#A90533"/>
<path d="M75.878 24.8477H72.2051V42.8517H75.878V24.8477Z" fill="#A90533"/>
<path d="M83.1683 29.2503C82.0826 29.217 81.0067 29.4669 80.0454 29.9759C79.4247 30.3185 78.8982 30.8107 78.5132 31.4085C78.1281 32.0062 77.8966 32.6908 77.8392 33.4008L81.2982 33.7636C81.4021 32.706 81.6588 31.7037 82.8811 31.7037C84.195 31.7037 84.195 32.9335 84.195 34.0895V34.5998C80.2593 34.815 77.3809 35.7927 77.3809 39.4882C77.3809 42.0954 79.0737 43.1284 80.8399 43.1284C81.6105 43.1545 82.3713 42.9484 83.0246 42.5365C83.678 42.1245 84.1941 41.5255 84.5067 40.8164C84.4516 41.5044 84.5136 42.1969 84.69 42.864H88.094C87.9596 42.4089 87.8801 42.1691 87.8801 39.894V34.606C87.8801 32.9888 87.8251 31.4762 87.0306 30.6707C86.5186 30.1855 85.9137 29.8104 85.2527 29.5683C84.5918 29.3262 83.8888 29.2222 83.1866 29.2626M82.441 40.6811C81.561 40.6811 81.2188 39.9433 81.2188 39.0086C81.2188 37.2808 82.111 36.7642 84.2256 36.4937V37.1455C84.2256 38.3753 84.1766 39.1931 83.6694 39.9432C83.5486 40.1638 83.3718 40.3483 83.1572 40.478C82.9425 40.6076 82.6975 40.6776 82.4472 40.6811" fill="#A90533"/>
<path d="M93.5038 24.7368H89.7637V28.4262H93.5038V24.7368ZM93.5038 29.5391H89.837V42.8454H93.5038V29.5391Z" fill="#A90533"/>
<path d="M105.439 24.8477H101.821V30.7629C101.565 30.2914 101.176 29.9064 100.703 29.656C100.23 29.4056 99.6944 29.3008 99.1628 29.3548C94.7871 29.3548 94.7871 35.2024 94.7871 36.26C94.7871 38.9102 95.4655 43.0238 99.0039 43.0238C101.094 43.0238 101.662 41.6158 102.06 40.6504V42.8332H105.464L105.439 24.8477ZM100.183 40.4843C98.6006 40.4843 98.6006 38.2646 98.6006 35.682C98.6006 33.5361 98.7839 31.8144 100.208 31.8144C101.815 31.8144 101.815 33.9542 101.815 35.1348V37.4898C101.815 38.4552 101.815 40.4905 100.177 40.4905" fill="#A90533"/>
<path d="M112.276 29.2504C111.371 29.2255 110.476 29.4472 109.687 29.8921C108.897 30.337 108.242 30.9885 107.79 31.7777C107.118 33.2132 106.781 34.7843 106.806 36.3709C106.806 39.9065 108.242 43.1347 112.306 43.1347C116.584 43.1347 117.293 39.7344 117.562 38.4923L114.262 38.2771C114.158 39.1502 113.968 40.5829 112.386 40.5829C110.552 40.5829 110.589 38.6275 110.619 36.8197H117.568C117.568 35.2026 117.568 33.4994 116.596 31.6916C116.168 30.9288 115.54 30.2992 114.78 29.8719C114.02 29.4445 113.158 29.2359 112.288 29.2689M110.613 34.6861C110.613 33.7515 110.668 31.7162 112.331 31.7162C114.127 31.7162 114.072 33.9605 114.048 34.6861H110.613Z" fill="#A90533"/>
<path d="M124.267 24.8477H119.408V42.8517H124.395C128.881 42.8517 130.354 40.6688 130.354 37.8342C130.354 34.2493 127.799 33.5299 127.005 33.2963C127.84 33.0386 128.564 32.5039 129.059 31.7793C129.554 31.0547 129.791 30.1828 129.73 29.3056C129.749 28.1603 129.373 27.0437 128.667 26.1451C127.567 24.8476 125.892 24.8477 124.267 24.8477ZM121.578 32.4908V26.6554H124.267C125.263 26.6554 127.481 26.6554 127.481 29.5208C127.481 32.3862 125.391 32.4908 123.973 32.4908H121.578ZM121.578 41.0439V34.2801H123.918C125.104 34.2801 125.984 34.3293 126.846 34.9503C127.256 35.2757 127.581 35.6963 127.794 36.1762C128.007 36.656 128.101 37.1806 128.068 37.705C128.068 40.1031 126.54 41.0254 124.316 41.0254L121.578 41.0439Z" fill="#A90533"/>
<path d="M137.169 29.1522C136.286 29.1349 135.411 29.3265 134.614 29.7117C134.052 29.9768 133.563 30.3767 133.19 30.8763C132.817 31.3759 132.572 31.9599 132.475 32.5772L134.4 32.8969C134.501 32.2796 134.826 31.722 135.313 31.3332C135.8 30.9443 136.414 30.7521 137.034 30.794C139.479 30.794 139.479 33.1367 139.479 34.0898V34.6862C138.901 34.6138 138.32 34.5768 137.737 34.5755C135.568 34.5755 133.93 35.0859 132.934 36.2788C132.28 37.1277 131.933 38.175 131.95 39.2487C131.95 41.7083 133.533 43.2393 135.837 43.2393C138.244 43.2393 139.112 41.5669 139.644 40.5215C139.633 41.3055 139.686 42.0891 139.803 42.8643H141.679C141.465 41.8067 141.441 41.2717 141.441 38.5969V34.6862C141.441 33.1736 141.441 31.5564 140.64 30.5911C140.199 30.1117 139.658 29.7367 139.056 29.4932C138.453 29.2497 137.805 29.1438 137.157 29.1829M136.216 41.5914C134.688 41.5914 134.022 40.6814 134.022 39.3041C134.022 37.1519 135.244 36.0943 137.957 36.0943C138.473 36.0927 138.987 36.1463 139.491 36.2542C139.571 37.6869 139.571 38.6769 138.929 39.8943C138.677 40.4027 138.29 40.831 137.811 41.1317C137.332 41.4323 136.78 41.5936 136.216 41.5976" fill="#A90533"/>
<path d="M149.423 29.1522C148.672 29.1326 147.934 29.3579 147.321 29.7946C146.707 30.2312 146.251 30.8557 146.019 31.5749V29.5273H144.186V42.8336H146.141V35.6762C146.141 31.9254 147.406 30.8186 148.989 30.8186C151.024 30.8186 151.024 32.4358 151.024 34.6494V42.8582H152.98V34.3788C152.98 32.8969 152.98 31.7532 152.583 30.9539C152.289 30.3756 151.833 29.8967 151.271 29.5764C150.71 29.2562 150.067 29.1087 149.423 29.1522" fill="#A90533"/>
<path d="M157.686 24.8477H155.73V42.8517H157.686V38.6581L159.776 35.7804L162.887 42.8517H165.001L161.09 34.2432L164.549 29.5454H162.41L157.686 36.1555V24.8477Z" fill="#A90533"/>
</svg>
